u2194_ 350 - 60.ufo
<glyph name="dollar" format="1">
  <advance width="820"/>
  <unicode hex="0024"/>
  <outline>
    <contour>
      <point x="351" y="485" type="line"/>
      <point x="218" y="510" type="line"/>
      <point x="287" y="733" type="line"/>
      <point x="351" y="733" type="line"/>
    </contour>
    <contour>
      <point x="471" y="101" type="line"/>
      <point x="471" y="320" type="line"/>
      <point x="610" y="163" type="line"/>
    </contour>
    <contour>
      <point x="411" y="-61" type="curve" smooth="yes"/>
      <point x="431" y="-61"/>
      <point x="448" y="-51"/>
      <point x="459" y="-36" type="curve"/>
      <point x="733" y="87" type="line" smooth="yes"/>
      <point x="772" y="105"/>
      <point x="782" y="149"/>
      <point x="753" y="182" type="curve" smooth="yes"/>
      <point x="526" y="439" type="line" smooth="yes"/>
      <point x="518" y="447"/>
      <point x="503" y="456"/>
      <point x="492" y="458" type="curve" smooth="yes"/>
      <point x="471" y="462" type="line"/>
      <point x="471" y="732" type="line"/>
      <point x="555" y="731" type="line"/>
      <point x="661" y="567" type="line" smooth="yes"/>
      <point x="678" y="539"/>
      <point x="716" y="531"/>
      <point x="743" y="549" type="curve" smooth="yes"/>
      <point x="771" y="566"/>
      <point x="779" y="604"/>
      <point x="761" y="631" type="curve" smooth="yes"/>
      <point x="638" y="823" type="line" smooth="yes"/>
      <point x="628" y="838"/>
      <point x="606" y="851"/>
      <point x="588" y="851" type="curve" smooth="yes"/>
      <point x="438" y="852" type="line"/>
      <point x="430" y="856"/>
      <point x="421" y="859"/>
      <point x="411" y="859" type="curve" smooth="yes"/>
      <point x="402" y="859"/>
      <point x="392" y="857"/>
      <point x="384" y="852" type="curve"/>
      <point x="243" y="854" type="line" smooth="yes"/>
      <point x="219" y="854"/>
      <point x="193" y="835"/>
      <point x="186" y="811" type="curve" smooth="yes"/>
      <point x="83" y="482" type="line" smooth="yes"/>
      <point x="72" y="446"/>
      <point x="93" y="412"/>
      <point x="129" y="405" type="curve" smooth="yes"/>
      <point x="351" y="363" type="line"/>
      <point x="351" y="101" type="line"/>
      <point x="145" y="248" type="line" smooth="yes"/>
      <point x="118" y="267"/>
      <point x="80" y="260"/>
      <point x="61" y="234" type="curve" smooth="yes"/>
      <point x="42" y="207"/>
      <point x="49" y="169"/>
      <point x="75" y="150" type="curve" smooth="yes"/>
      <point x="356" y="-50" type="line" smooth="yes"/>
      <point x="367" y="-58"/>
      <point x="384" y="-61"/>
      <point x="399" y="-60" type="curve"/>
      <point x="403" y="-61"/>
      <point x="407" y="-61"/>
    </contour>
  </outline>
</glyph>
<glyph name="percent" format="1">
  <advance width="819"/>
  <unicode hex="0025"/>
  <outline>
    <contour>
      <point x="309" y="859" type="curve" smooth="yes"/>
      <point x="277" y="859"/>
      <point x="249" y="831"/>
      <point x="249" y="799" type="curve" smooth="yes"/>
      <point x="249" y="789" type="line" smooth="yes"/>
      <point x="249" y="757"/>
      <point x="277" y="729"/>
      <point x="309" y="729" type="curve" smooth="yes"/>
      <point x="341" y="729"/>
      <point x="369" y="757"/>
      <point x="369" y="789" type="curve" smooth="yes"/>
      <point x="369" y="799" type="line" smooth="yes"/>
      <point x="369" y="831"/>
      <point x="341" y="859"/>
    </contour>
    <contour>
      <point x="157" y="-37" type="curve" smooth="yes"/>
      <point x="757" y="763" type="line" smooth="yes"/>
      <point x="776" y="789"/>
      <point x="771" y="828"/>
      <point x="745" y="847" type="curve" smooth="yes"/>
      <point x="719" y="866"/>
      <point x="680" y="861"/>
      <point x="661" y="835" type="curve" smooth="yes"/>
      <point x="61" y="35" type="line" smooth="yes"/>
      <point x="42" y="9"/>
      <point x="47" y="-30"/>
      <point x="73" y="-49" type="curve" smooth="yes"/>
      <point x="99" y="-68"/>
      <point x="138" y="-63"/>
    </contour>
    <contour>
      <point x="509" y="-61" type="curve" smooth="yes"/>
      <point x="541" y="-61"/>
      <point x="569" y="-33"/>
      <point x="569" y="-1" type="curve" smooth="yes"/>
      <point x="569" y="9" type="line" smooth="yes"/>
      <point x="569" y="41"/>
      <point x="541" y="69"/>
      <point x="509" y="69" type="curve" smooth="yes"/>
      <point x="477" y="69"/>
      <point x="449" y="41"/>
      <point x="449" y="9" type="curve" smooth="yes"/>
      <point x="449" y="-1" type="line" smooth="yes"/>
      <point x="449" y="-33"/>
      <point x="477" y="-61"/>
    </contour>
  </outline>
</glyph>
<glyph name="ampersand" format="1">
  <advance width="797"/>
  <unicode hex="0026"/>
  <outline>
    <contour>
      <point x="724" y="-47" type="curve" smooth="yes"/>
      <point x="750" y="-28"/>
      <point x="755" y="11"/>
      <point x="736" y="37" type="curve" smooth="yes"/>
      <point x="596" y="224" type="line"/>
      <point x="730" y="358" type="line" smooth="yes"/>
      <point x="752" y="381"/>
      <point x="752" y="420"/>
      <point x="729" y="443" type="curve" smooth="yes"/>
      <point x="706" y="465"/>
      <point x="667" y="465"/>
      <point x="644" y="442" type="curve" smooth="yes"/>
      <point x="523" y="321" type="line"/>
      <point x="461" y="403" type="line"/>
      <point x="590" y="442" type="line" smooth="yes"/>
      <point x="637" y="457"/>
      <point x="650" y="508"/>
      <point x="614" y="543" type="curve" smooth="yes"/>
      <point x="365" y="784" type="line" smooth="yes"/>
      <point x="326" y="822"/>
      <point x="269" y="802"/>
      <point x="263" y="747" type="curve" smooth="yes"/>
      <point x="233" y="459" type="line"/>
      <point x="227" y="457" type="line" smooth="yes"/>
      <point x="212" y="453"/>
      <point x="195" y="437"/>
      <point x="189" y="423" type="curve" smooth="yes"/>
      <point x="56" y="100" type="line" smooth="yes"/>
      <point x="35" y="50"/>
      <point x="73" y="6"/>
      <point x="125" y="18" type="curve" smooth="yes"/>
      <point x="460" y="99" type="line" smooth="yes"/>
      <point x="469" y="102"/>
      <point x="482" y="109"/>
      <point x="488" y="115" type="curve" smooth="yes"/>
      <point x="511" y="138" type="line"/>
      <point x="640" y="-35" type="line" smooth="yes"/>
      <point x="659" y="-61"/>
      <point x="698" y="-66"/>
    </contour>
    <contour>
      <point x="358" y="497" type="line"/>
      <point x="370" y="612" type="line"/>
      <point x="458" y="527" type="line"/>
    </contour>
    <contour>
      <point x="340" y="365" type="line" smooth="yes"/>
      <point x="438" y="235" type="line"/>
      <point x="415" y="212" type="line"/>
      <point x="212" y="163" type="line"/>
      <point x="285" y="341" type="line"/>
      <point x="304" y="341"/>
      <point x="322" y="350"/>
      <point x="334" y="364" type="curve"/>
      <point x="339" y="366" type="line"/>
    </contour>
  </outline>
</glyph>
<glyph name="asterisk" format="1">
  <advance width="619"/>
  <unicode hex="002A"/>
  <outline>
    <contour>
      <point x="351" y="744" type="curve" smooth="yes"/>
      <point x="329" y="767"/>
      <point x="289" y="767"/>
      <point x="267" y="744" type="curve" smooth="yes"/>
      <point x="67" y="544" type="line" smooth="yes"/>
      <point x="44" y="522"/>
      <point x="44" y="482"/>
      <point x="67" y="460" type="curve" smooth="yes"/>
      <point x="89" y="437"/>
      <point x="129" y="437"/>
      <point x="151" y="460" type="curve" smooth="yes"/>
      <point x="351" y="660" type="line" smooth="yes"/>
      <point x="374" y="682"/>
      <point x="374" y="722"/>
    </contour>
    <contour>
      <point x="218" y="268" type="curve" smooth="yes"/>
      <point x="239" y="297" type="line"/>
      <point x="347" y="352" type="line"/>
      <point x="411" y="266" type="line" smooth="yes"/>
      <point x="430" y="240"/>
      <point x="469" y="235"/>
      <point x="495" y="254" type="curve" smooth="yes"/>
      <point x="521" y="273"/>
      <point x="526" y="312"/>
      <point x="507" y="338" type="curve" smooth="yes"/>
      <point x="455" y="407" type="line"/>
      <point x="536" y="449" type="line" smooth="yes"/>
      <point x="565" y="463"/>
      <point x="577" y="500"/>
      <point x="562" y="529" type="curve" smooth="yes"/>
      <point x="548" y="558"/>
      <point x="511" y="570"/>
      <point x="482" y="555" type="curve" smooth="yes"/>
      <point x="382" y="505" type="line"/>
      <point x="357" y="538" type="line" smooth="yes"/>
      <point x="338" y="564"/>
      <point x="299" y="569"/>
      <point x="273" y="550" type="curve" smooth="yes"/>
      <point x="247" y="531"/>
      <point x="242" y="492"/>
      <point x="261" y="466" type="curve" smooth="yes"/>
      <point x="273" y="449" type="line"/>
      <point x="171" y="397" type="line" smooth="yes"/>
      <point x="164" y="393"/>
      <point x="154" y="385"/>
      <point x="149" y="378" type="curve" smooth="yes"/>
      <point x="120" y="336" type="line" smooth="yes"/>
      <point x="101" y="310"/>
      <point x="108" y="271"/>
      <point x="135" y="253" type="curve" smooth="yes"/>
      <point x="161" y="234"/>
      <point x="200" y="241"/>
    </contour>
  </outline>
</glyph>
<glyph name="zero" format="1">
  <advance width="820"/>
  <unicode hex="0030"/>
  <outline>
    <contour>
      <point x="316" y="-58" type="curve" smooth="yes"/>
      <point x="660" y="-22" type="line" smooth="yes"/>
      <point x="685" y="-19"/>
      <point x="709" y="3"/>
      <point x="713" y="28" type="curve" smooth="yes"/>
      <point x="769" y="372" type="line" smooth="yes"/>
      <point x="770" y="377"/>
      <point x="770" y="384"/>
      <point x="770" y="388" type="curve" smooth="yes"/>
      <point x="734" y="727" type="line" smooth="yes"/>
      <point x="732" y="739"/>
      <point x="726" y="751"/>
      <point x="717" y="761" type="curve"/>
      <point x="713" y="769"/>
      <point x="708" y="776"/>
      <point x="700" y="782" type="curve" smooth="yes"/>
      <point x="684" y="794"/>
      <point x="662" y="797"/>
      <point x="643" y="790" type="curve"/>
      <point x="352" y="860" type="line" smooth="yes"/>
      <point x="333" y="865"/>
      <point x="306" y="857"/>
      <point x="293" y="842" type="curve" smooth="yes"/>
      <point x="65" y="582" type="line" smooth="yes"/>
      <point x="57" y="572"/>
      <point x="50" y="554"/>
      <point x="50" y="542" type="curve" smooth="yes"/>
      <point x="50" y="195" type="line" smooth="yes"/>
      <point x="50" y="181"/>
      <point x="58" y="162"/>
      <point x="69" y="152" type="curve" smooth="yes"/>
      <point x="114" y="108" type="line"/>
      <point x="102" y="92" type="line" smooth="yes"/>
      <point x="83" y="66"/>
      <point x="88" y="28"/>
      <point x="114" y="8" type="curve" smooth="yes"/>
      <point x="140" y="-11"/>
      <point x="178" y="-6"/>
      <point x="198" y="20" type="curve" smooth="yes"/>
      <point x="202" y="25" type="line"/>
      <point x="261" y="-32" type="line"/>
      <point x="274" y="-49"/>
      <point x="294" y="-60"/>
    </contour>
    <contour>
      <point x="187" y="204" type="line"/>
      <point x="170" y="221" type="line"/>
      <point x="170" y="519" type="line"/>
      <point x="359" y="735" type="line"/>
      <point x="554" y="688" type="line"/>
    </contour>
    <contour>
      <point x="333" y="65" type="line"/>
      <point x="275" y="121" type="line"/>
      <point x="628" y="587" type="line"/>
      <point x="649" y="384" type="line"/>
      <point x="602" y="93" type="line"/>
    </contour>
  </outline>
</glyph>
<glyph name="one" format="1">
  <advance width="820"/>
  <unicode hex="0031"/>
  <outline>
    <contour>
      <point x="110" y="-59" type="curve" smooth="yes"/>
      <point x="710" y="-59" type="line" smooth="yes"/>
      <point x="742" y="-59"/>
      <point x="770" y="-31"/>
      <point x="770" y="1" type="curve" smooth="yes"/>
      <point x="770" y="33"/>
      <point x="742" y="61"/>
      <point x="710" y="61" type="curve" smooth="yes"/>
      <point x="327" y="61" type="line"/>
      <point x="459" y="246" type="line" smooth="yes"/>
      <point x="465" y="255"/>
      <point x="470" y="270"/>
      <point x="470" y="281" type="curve" smooth="yes"/>
      <point x="470" y="631" type="line" smooth="yes"/>
      <point x="470" y="667"/>
      <point x="440" y="694"/>
      <point x="404" y="691" type="curve" smooth="yes"/>
      <point x="104" y="661" type="line" smooth="yes"/>
      <point x="72" y="657"/>
      <point x="47" y="627"/>
      <point x="50" y="595" type="curve" smooth="yes"/>
      <point x="54" y="563"/>
      <point x="84" y="538"/>
      <point x="116" y="541" type="curve" smooth="yes"/>
      <point x="350" y="565" type="line"/>
      <point x="350" y="300" type="line"/>
      <point x="179" y="61" type="line"/>
      <point x="110" y="61" type="line" smooth="yes"/>
      <point x="78" y="61"/>
      <point x="50" y="33"/>
      <point x="50" y="1" type="curve" smooth="yes"/>
      <point x="50" y="-31"/>
      <point x="78" y="-59"/>
    </contour>
  </outline>
</glyph>
<glyph name="two" format="1">
  <advance width="821"/>
  <unicode hex="0032"/>
  <outline>
    <contour>
      <point x="360" y="-60" type="curve" smooth="yes"/>
      <point x="710" y="-60" type="line" smooth="yes"/>
      <point x="742" y="-60"/>
      <point x="770" y="-32"/>
      <point x="770" y="0" type="curve" smooth="yes"/>
      <point x="770" y="32"/>
      <point x="742" y="60"/>
      <point x="710" y="60" type="curve" smooth="yes"/>
      <point x="384" y="60" type="line"/>
      <point x="212" y="222" type="line"/>
      <point x="439" y="348" type="line"/>
      <point x="738" y="513" type="line" smooth="yes"/>
      <point x="776" y="534"/>
      <point x="781" y="580"/>
      <point x="749" y="610" type="curve" smooth="yes"/>
      <point x="490" y="844" type="line" smooth="yes"/>
      <point x="476" y="857"/>
      <point x="449" y="863"/>
      <point x="431" y="857" type="curve" smooth="yes"/>
      <point x="103" y="748" type="line" smooth="yes"/>
      <point x="83" y="742"/>
      <point x="65" y="719"/>
      <point x="62" y="699" type="curve" smooth="yes"/>
      <point x="50" y="608" type="line" smooth="yes"/>
      <point x="46" y="575"/>
      <point x="70" y="545"/>
      <point x="102" y="540" type="curve" smooth="yes"/>
      <point x="135" y="536"/>
      <point x="165" y="560"/>
      <point x="170" y="592" type="curve" smooth="yes"/>
      <point x="176" y="646" type="line"/>
      <point x="436" y="732" type="line"/>
      <point x="606" y="577" type="line"/>
      <point x="381" y="452" type="line"/>
      <point x="82" y="287" type="line" smooth="yes"/>
      <point x="44" y="266"/>
      <point x="39" y="221"/>
      <point x="70" y="191" type="curve" smooth="yes"/>
      <point x="319" y="-44" type="line" smooth="yes"/>
      <point x="328" y="-53"/>
      <point x="347" y="-60"/>
    </contour>
  </outline>
</glyph>
<glyph name="three" format="1">
  <advance width="816"/>
  <unicode hex="0033"/>
  <outline>
    <contour>
      <point x="414" y="-54" type="curve" smooth="yes"/>
      <point x="728" y="81" type="line" smooth="yes"/>
      <point x="768" y="98"/>
      <point x="778" y="142"/>
      <point x="750" y="175" type="curve" smooth="yes"/>
      <point x="559" y="401" type="line"/>
      <point x="750" y="627" type="line" smooth="yes"/>
      <point x="778" y="660"/>
      <point x="768" y="704"/>
      <point x="728" y="721" type="curve" smooth="yes"/>
      <point x="414" y="856" type="line" smooth="yes"/>
      <point x="397" y="863"/>
      <point x="370" y="861"/>
      <point x="355" y="850" type="curve" smooth="yes"/>
      <point x="75" y="650" type="line" smooth="yes"/>
      <point x="49" y="631"/>
      <point x="42" y="592"/>
      <point x="61" y="566" type="curve" smooth="yes"/>
      <point x="80" y="540"/>
      <point x="119" y="533"/>
      <point x="145" y="552" type="curve" smooth="yes"/>
      <point x="397" y="733" type="line"/>
      <point x="606" y="643" type="line"/>
      <point x="434" y="440" type="line" smooth="yes"/>
      <point x="416" y="418"/>
      <point x="416" y="384"/>
      <point x="434" y="362" type="curve" smooth="yes"/>
      <point x="606" y="159" type="line"/>
      <point x="397" y="69" type="line"/>
      <point x="145" y="250" type="line" smooth="yes"/>
      <point x="119" y="269"/>
      <point x="80" y="262"/>
      <point x="61" y="236" type="curve" smooth="yes"/>
      <point x="42" y="210"/>
      <point x="49" y="171"/>
      <point x="75" y="152" type="curve" smooth="yes"/>
      <point x="355" y="-48" type="line" smooth="yes"/>
      <point x="370" y="-59"/>
      <point x="397" y="-61"/>
    </contour>
  </outline>
</glyph>
<glyph name="four" format="1">
  <advance width="628"/>
  <unicode hex="0034"/>
  <outline>
    <contour>
      <point x="518" y="-59" type="curve" smooth="yes"/>
      <point x="550" y="-59"/>
      <point x="578" y="-31"/>
      <point x="578" y="1" type="curve" smooth="yes"/>
      <point x="578" y="600" type="line" smooth="yes"/>
      <point x="578" y="632"/>
      <point x="550" y="660"/>
      <point x="518" y="660" type="curve" smooth="yes"/>
      <point x="486" y="660"/>
      <point x="458" y="632"/>
      <point x="458" y="600" type="curve" smooth="yes"/>
      <point x="458" y="217" type="line"/>
      <point x="287" y="339" type="line"/>
      <point x="176" y="614" type="line"/>
      <point x="269" y="769" type="line" smooth="yes"/>
      <point x="286" y="797"/>
      <point x="277" y="835"/>
      <point x="249" y="851" type="curve" smooth="yes"/>
      <point x="221" y="868"/>
      <point x="183" y="859"/>
      <point x="167" y="831" type="curve" smooth="yes"/>
      <point x="58" y="650" type="line" smooth="yes"/>
      <point x="49" y="636"/>
      <point x="48" y="612"/>
      <point x="54" y="597" type="curve" smooth="yes"/>
      <point x="182" y="278" type="line" smooth="yes"/>
      <point x="186" y="269"/>
      <point x="195" y="257"/>
      <point x="203" y="251" type="curve" smooth="yes"/>
      <point x="458" y="69" type="line"/>
      <point x="458" y="1" type="line" smooth="yes"/>
      <point x="458" y="-31"/>
      <point x="486" y="-59"/>
    </contour>
  </outline>
</glyph>
<glyph name="five" format="1">
  <advance width="820"/>
  <unicode hex="0035"/>
  <outline>
    <contour>
      <point x="414" y="-54" type="curve" smooth="yes"/>
      <point x="728" y="81" type="line" smooth="yes"/>
      <point x="768" y="98"/>
      <point x="778" y="142"/>
      <point x="750" y="175" type="curve" smooth="yes"/>
      <point x="526" y="440" type="line" smooth="yes"/>
      <point x="516" y="452"/>
      <point x="495" y="461"/>
      <point x="480" y="461" type="curve" smooth="yes"/>
      <point x="193" y="461" type="line"/>
      <point x="205" y="694" type="line"/>
      <point x="495" y="741" type="line"/>
      <point x="710" y="741" type="line" smooth="yes"/>
      <point x="742" y="741"/>
      <point x="770" y="769"/>
      <point x="770" y="801" type="curve" smooth="yes"/>
      <point x="770" y="833"/>
      <point x="742" y="861"/>
      <point x="710" y="861" type="curve" smooth="yes"/>
      <point x="490" y="861" type="line" smooth="yes"/>
      <point x="487" y="861"/>
      <point x="483" y="861"/>
      <point x="480" y="860" type="curve" smooth="yes"/>
      <point x="138" y="805" type="line" smooth="yes"/>
      <point x="111" y="801"/>
      <point x="89" y="775"/>
      <point x="87" y="749" type="curve" smooth="yes"/>
      <point x="70" y="404" type="line" smooth="yes"/>
      <point x="68" y="369"/>
      <point x="95" y="341"/>
      <point x="130" y="341" type="curve" smooth="yes"/>
      <point x="452" y="341" type="line"/>
      <point x="606" y="159" type="line"/>
      <point x="397" y="69" type="line"/>
      <point x="145" y="250" type="line" smooth="yes"/>
      <point x="119" y="269"/>
      <point x="80" y="262"/>
      <point x="61" y="236" type="curve" smooth="yes"/>
      <point x="42" y="210"/>
      <point x="49" y="171"/>
      <point x="75" y="152" type="curve" smooth="yes"/>
      <point x="355" y="-48" type="line" smooth="yes"/>
      <point x="370" y="-59"/>
      <point x="397" y="-61"/>
    </contour>
  </outline>
</glyph>
<glyph name="six" format="1">
  <advance width="820"/>
  <unicode hex="0036"/>
  <outline>
    <contour>
      <point x="525" y="-39" type="curve" smooth="yes"/>
      <point x="753" y="221" type="line" smooth="yes"/>
      <point x="781" y="253"/>
      <point x="771" y="298"/>
      <point x="732" y="315" type="curve" smooth="yes"/>
      <point x="420" y="453" type="line"/>
      <point x="196" y="613" type="line"/>
      <point x="207" y="699" type="line"/>
      <point x="480" y="738" type="line"/>
      <point x="669" y="558" type="line" smooth="yes"/>
      <point x="692" y="535"/>
      <point x="731" y="536"/>
      <point x="753" y="560" type="curve" smooth="yes"/>
      <point x="776" y="583"/>
      <point x="775" y="622"/>
      <point x="751" y="644" type="curve" smooth="yes"/>
      <point x="541" y="844" type="line" smooth="yes"/>
      <point x="530" y="855"/>
      <point x="508" y="863"/>
      <point x="492" y="860" type="curve" smooth="yes"/>
      <point x="145" y="812" type="line" smooth="yes"/>
      <point x="120" y="808"/>
      <point x="97" y="785"/>
      <point x="94" y="760" type="curve" smooth="yes"/>
      <point x="80" y="653" type="line"/>
      <point x="73" y="649"/>
      <point x="66" y="643"/>
      <point x="61" y="636" type="curve" smooth="yes"/>
      <point x="44" y="612"/>
      <point x="48" y="578"/>
      <point x="68" y="558" type="curve"/>
      <point x="50" y="419" type="line" smooth="yes"/>
      <point x="50" y="415"/>
      <point x="50" y="409"/>
      <point x="50" y="406" type="curve" smooth="yes"/>
      <point x="82" y="58" type="line" smooth="yes"/>
      <point x="84" y="33"/>
      <point x="106" y="9"/>
      <point x="131" y="4" type="curve" smooth="yes"/>
      <point x="469" y="-58" type="line" smooth="yes"/>
      <point x="488" y="-61"/>
      <point x="513" y="-53"/>
    </contour>
    <contour>
      <point x="355" y="352" type="line" smooth="yes"/>
      <point x="358" y="350"/>
      <point x="363" y="348"/>
      <point x="366" y="346" type="curve" smooth="yes"/>
      <point x="609" y="238" type="line"/>
      <point x="457" y="66" type="line"/>
      <point x="197" y="114" type="line"/>
      <point x="170" y="410" type="line"/>
      <point x="179" y="478" type="line"/>
    </contour>
  </outline>
</glyph>
<glyph name="seven" format="1">
  <advance width="796"/>
  <unicode hex="0037"/>
  <outline>
    <contour>
      <point x="360" y="-36" type="curve" smooth="yes"/>
      <point x="548" y="247" type="line"/>
      <point x="737" y="530" type="line" smooth="yes"/>
      <point x="753" y="554"/>
      <point x="748" y="589"/>
      <point x="727" y="608" type="curve" smooth="yes"/>
      <point x="469" y="841" type="line" smooth="yes"/>
      <point x="460" y="850"/>
      <point x="442" y="857"/>
      <point x="429" y="857" type="curve" smooth="yes"/>
      <point x="110" y="857" type="line" smooth="yes"/>
      <point x="78" y="857"/>
      <point x="50" y="829"/>
      <point x="50" y="797" type="curve" smooth="yes"/>
      <point x="50" y="765"/>
      <point x="78" y="737"/>
      <point x="110" y="737" type="curve" smooth="yes"/>
      <point x="406" y="737" type="line"/>
      <point x="608" y="554" type="line"/>
      <point x="448" y="314" type="line"/>
      <point x="260" y="30" type="line" smooth="yes"/>
      <point x="242" y="3"/>
      <point x="250" y="-35"/>
      <point x="277" y="-53" type="curve" smooth="yes"/>
      <point x="304" y="-71"/>
      <point x="342" y="-63"/>
    </contour>
  </outline>
</glyph>
<glyph name="eight" format="1">
  <advance width="823"/>
  <unicode hex="0038"/>
  <outline>
    <contour>
      <point x="479" y="-46" type="curve" smooth="yes"/>
      <point x="749" y="174" type="line" smooth="yes"/>
      <point x="783" y="202"/>
      <point x="780" y="249"/>
      <point x="742" y="272" type="curve" smooth="yes"/>
      <point x="567" y="376" type="line"/>
      <point x="752" y="659" type="line" smooth="yes"/>
      <point x="775" y="694"/>
      <point x="760" y="735"/>
      <point x="721" y="748" type="curve" smooth="yes"/>
      <point x="390" y="857" type="line" smooth="yes"/>
      <point x="372" y="863"/>
      <point x="346" y="858"/>
      <point x="331" y="845" type="curve" smooth="yes"/>
      <point x="72" y="617" type="line" smooth="yes"/>
      <point x="39" y="588"/>
      <point x="43" y="542"/>
      <point x="81" y="520" type="curve" smooth="yes"/>
      <point x="266" y="414" type="line"/>
      <point x="69" y="162" type="line" smooth="yes"/>
      <point x="43" y="128"/>
      <point x="55" y="84"/>
      <point x="95" y="69" type="curve" smooth="yes"/>
      <point x="419" y="-56" type="line" smooth="yes"/>
      <point x="437" y="-63"/>
      <point x="464" y="-59"/>
    </contour>
    <contour>
      <point x="479" y="460" type="line"/>
      <point x="427" y="460" type="line"/>
      <point x="214" y="582" type="line"/>
      <point x="385" y="732" type="line"/>
      <point x="609" y="659" type="line"/>
    </contour>
    <contour>
      <point x="607" y="213" type="line"/>
      <point x="430" y="68" type="line"/>
      <point x="213" y="152" type="line"/>
      <point x="360" y="340" type="line"/>
      <point x="394" y="340" type="line"/>
    </contour>
  </outline>
</glyph>
<glyph name="nine" format="1">
  <advance width="820"/>
  <unicode hex="0039"/>
  <outline>
    <contour>
      <point x="465" y="449" type="line" smooth="yes"/>
      <point x="462" y="451"/>
      <point x="457" y="453"/>
      <point x="454" y="455" type="curve" smooth="yes"/>
      <point x="211" y="563" type="line"/>
      <point x="363" y="735" type="line"/>
      <point x="623" y="687" type="line"/>
      <point x="650" y="391" type="line"/>
      <point x="641" y="323" type="line"/>
    </contour>
    <contour>
      <point x="328" y="-59" type="curve" smooth="yes"/>
      <point x="675" y="-11" type="line" smooth="yes"/>
      <point x="700" y="-7"/>
      <point x="723" y="16"/>
      <point x="726" y="41" type="curve" smooth="yes"/>
      <point x="740" y="148" type="line"/>
      <point x="747" y="152"/>
      <point x="754" y="158"/>
      <point x="759" y="165" type="curve" smooth="yes"/>
      <point x="776" y="189"/>
      <point x="772" y="223"/>
      <point x="752" y="243" type="curve"/>
      <point x="770" y="382" type="line" smooth="yes"/>
      <point x="770" y="386"/>
      <point x="770" y="392"/>
      <point x="770" y="395" type="curve" smooth="yes"/>
      <point x="738" y="743" type="line" smooth="yes"/>
      <point x="736" y="768"/>
      <point x="714" y="792"/>
      <point x="689" y="797" type="curve" smooth="yes"/>
      <point x="351" y="859" type="line" smooth="yes"/>
      <point x="332" y="862"/>
      <point x="307" y="854"/>
      <point x="295" y="840" type="curve" smooth="yes"/>
      <point x="67" y="580" type="line" smooth="yes"/>
      <point x="39" y="548"/>
      <point x="49" y="503"/>
      <point x="88" y="486" type="curve" smooth="yes"/>
      <point x="400" y="348" type="line"/>
      <point x="624" y="188" type="line"/>
      <point x="613" y="102" type="line"/>
      <point x="340" y="63" type="line"/>
      <point x="151" y="243" type="line" smooth="yes"/>
      <point x="128" y="266"/>
      <point x="89" y="265"/>
      <point x="67" y="241" type="curve" smooth="yes"/>
      <point x="44" y="218"/>
      <point x="45" y="179"/>
      <point x="69" y="157" type="curve" smooth="yes"/>
      <point x="279" y="-43" type="line" smooth="yes"/>
      <point x="290" y="-54"/>
      <point x="312" y="-62"/>
    </contour>
  </outline>
</glyph>
<glyph name="less" format="1">
  <advance width="533"/>
  <unicode hex="003C"/>
  <outline>
    <contour>
      <point x="477" y="76" type="curve" smooth="yes"/>
      <point x="491" y="105"/>
      <point x="479" y="142"/>
      <point x="450" y="157" type="curve" smooth="yes"/>
      <point x="412" y="176" type="line"/>
      <point x="221" y="335" type="line"/>
      <point x="450" y="449" type="line" smooth="yes"/>
      <point x="479" y="464"/>
      <point x="491" y="501"/>
      <point x="477" y="530" type="curve" smooth="yes"/>
      <point x="462" y="559"/>
      <point x="425" y="571"/>
      <point x="396" y="557" type="curve" smooth="yes"/>
      <point x="85" y="401" type="line" smooth="yes"/>
      <point x="43" y="380"/>
      <point x="38" y="331"/>
      <point x="73" y="301" type="curve" smooth="yes"/>
      <point x="340" y="79" type="line" smooth="yes"/>
      <point x="343" y="77"/>
      <point x="348" y="73"/>
      <point x="352" y="72" type="curve" smooth="yes"/>
      <point x="396" y="49" type="line" smooth="yes"/>
      <point x="425" y="35"/>
      <point x="462" y="47"/>
    </contour>
  </outline>
</glyph>
<glyph name="greater" format="1">
  <advance width="533"/>
  <unicode hex="003E"/>
  <outline>
    <contour>
      <point x="137" y="66" type="curve" smooth="yes"/>
      <point x="181" y="89" type="line" smooth="yes"/>
      <point x="185" y="90"/>
      <point x="190" y="94"/>
      <point x="193" y="96" type="curve" smooth="yes"/>
      <point x="460" y="318" type="line" smooth="yes"/>
      <point x="495" y="348"/>
      <point x="490" y="397"/>
      <point x="448" y="418" type="curve" smooth="yes"/>
      <point x="137" y="574" type="line" smooth="yes"/>
      <point x="108" y="588"/>
      <point x="71" y="576"/>
      <point x="56" y="547" type="curve" smooth="yes"/>
      <point x="42" y="518"/>
      <point x="54" y="481"/>
      <point x="83" y="466" type="curve" smooth="yes"/>
      <point x="312" y="352" type="line"/>
      <point x="121" y="193" type="line"/>
      <point x="83" y="174" type="line" smooth="yes"/>
      <point x="54" y="159"/>
      <point x="42" y="122"/>
      <point x="56" y="93" type="curve" smooth="yes"/>
      <point x="71" y="64"/>
      <point x="108" y="52"/>
    </contour>
  </outline>
</glyph>
<glyph name="question" format="1">
  <advance width="670"/>
  <unicode hex="003F"/>
  <outline>
    <contour>
      <point x="351" y="157" type="curve" smooth="yes"/>
      <point x="602" y="400" type="line" smooth="yes"/>
      <point x="614" y="412"/>
      <point x="622" y="435"/>
      <point x="620" y="452" type="curve" smooth="yes"/>
      <point x="570" y="793" type="line" smooth="yes"/>
      <point x="565" y="825"/>
      <point x="535" y="848"/>
      <point x="503" y="844" type="curve" smooth="yes"/>
      <point x="157" y="804" type="line" smooth="yes"/>
      <point x="137" y="801"/>
      <point x="115" y="784"/>
      <point x="108" y="765" type="curve" smooth="yes"/>
      <point x="54" y="620" type="line" smooth="yes"/>
      <point x="42" y="590"/>
      <point x="59" y="554"/>
      <point x="89" y="543" type="curve" smooth="yes"/>
      <point x="119" y="531"/>
      <point x="155" y="548"/>
      <point x="166" y="578" type="curve" smooth="yes"/>
      <point x="207" y="689" type="line"/>
      <point x="459" y="718" type="line"/>
      <point x="497" y="465" type="line"/>
      <point x="267" y="243" type="line" smooth="yes"/>
      <point x="244" y="221"/>
      <point x="243" y="182"/>
      <point x="266" y="158" type="curve" smooth="yes"/>
      <point x="288" y="135"/>
      <point x="327" y="134"/>
    </contour>
    <contour>
      <point x="309" y="-60" type="curve" smooth="yes"/>
      <point x="341" y="-60"/>
      <point x="369" y="-32"/>
      <point x="369" y="0" type="curve" smooth="yes"/>
      <point x="369" y="11" type="line" smooth="yes"/>
      <point x="369" y="43"/>
      <point x="341" y="71"/>
      <point x="309" y="71" type="curve" smooth="yes"/>
      <point x="277" y="71"/>
      <point x="249" y="43"/>
      <point x="249" y="11" type="curve" smooth="yes"/>
      <point x="249" y="0" type="line" smooth="yes"/>
      <point x="249" y="-32"/>
      <point x="277" y="-60"/>
    </contour>
  </outline>
</glyph>
<glyph name="at" format="1">
  <advance width="819"/>
  <unicode hex="0040"/>
  <outline>
    <contour>
      <point x="570" y="-48" type="curve" smooth="yes"/>
      <point x="573" y="-16"/>
      <point x="549" y="14"/>
      <point x="516" y="18" type="curve" smooth="yes"/>
      <point x="221" y="49" type="line"/>
      <point x="170" y="334" type="line"/>
      <point x="184" y="627" type="line"/>
      <point x="441" y="692" type="line"/>
      <point x="519" y="617" type="line"/>
      <point x="516" y="618"/>
      <point x="513" y="618"/>
      <point x="510" y="618" type="curve" smooth="yes"/>
      <point x="501" y="618"/>
      <point x="493" y="616"/>
      <point x="485" y="612" type="curve"/>
      <point x="477" y="609"/>
      <point x="470" y="603"/>
      <point x="464" y="596" type="curve" smooth="yes"/>
      <point x="268" y="358" type="line" smooth="yes"/>
      <point x="241" y="325"/>
      <point x="251" y="281"/>
      <point x="290" y="264" type="curve" smooth="yes"/>
      <point x="450" y="195" type="line"/>
      <point x="450" y="158" type="line" smooth="yes"/>
      <point x="450" y="126"/>
      <point x="478" y="98"/>
      <point x="510" y="98" type="curve" smooth="yes"/>
      <point x="537" y="98"/>
      <point x="561" y="118"/>
      <point x="568" y="143" type="curve"/>
      <point x="609" y="126" type="line" smooth="yes"/>
      <point x="645" y="110"/>
      <point x="683" y="129"/>
      <point x="691" y="167" type="curve" smooth="yes"/>
      <point x="768" y="505" type="line" smooth="yes"/>
      <point x="773" y="523"/>
      <point x="765" y="549"/>
      <point x="751" y="562" type="curve" smooth="yes"/>
      <point x="499" y="801" type="line" smooth="yes"/>
      <point x="486" y="814"/>
      <point x="461" y="821"/>
      <point x="443" y="816" type="curve" smooth="yes"/>
      <point x="112" y="733" type="line" smooth="yes"/>
      <point x="88" y="727"/>
      <point x="68" y="702"/>
      <point x="67" y="678" type="curve" smooth="yes"/>
      <point x="50" y="333" type="line" smooth="yes"/>
      <point x="50" y="329"/>
      <point x="50" y="323"/>
      <point x="51" y="319" type="curve" smooth="yes"/>
      <point x="111" y="-16" type="line" smooth="yes"/>
      <point x="115" y="-41"/>
      <point x="139" y="-63"/>
      <point x="164" y="-66" type="curve" smooth="yes"/>
      <point x="504" y="-102" type="line" smooth="yes"/>
      <point x="536" y="-105"/>
      <point x="566" y="-81"/>
    </contour>
    <contour>
      <point x="570" y="558" type="line" smooth="yes"/>
      <point x="570" y="562"/>
      <point x="570" y="566"/>
      <point x="569" y="570" type="curve"/>
      <point x="644" y="498" type="line"/>
      <point x="590" y="264" type="line"/>
      <point x="570" y="273" type="line"/>
    </contour>
    <contour>
      <point x="450" y="326" type="line"/>
      <point x="411" y="343" type="line"/>
      <point x="450" y="390" type="line"/>
    </contour>
  </outline>
</glyph>
<glyph name="B" format="1">
  <advance width="813"/>
  <unicode hex="0042"/>
  <outline>
    <contour>
      <point x="397" y="-52" type="curve" smooth="yes"/>
      <point x="723" y="69" type="line" smooth="yes"/>
      <point x="762" y="84"/>
      <point x="775" y="128"/>
      <point x="749" y="162" type="curve" smooth="yes"/>
      <point x="574" y="392" type="line"/>
      <point x="751" y="664" type="line" smooth="yes"/>
      <point x="773" y="699"/>
      <point x="758" y="741"/>
      <point x="719" y="754" type="curve" smooth="yes"/>
      <point x="386" y="861" type="line" smooth="yes"/>
      <point x="368" y="867"/>
      <point x="342" y="861"/>
      <point x="328" y="848" type="curve" smooth="yes"/>
      <point x="70" y="613" type="line" smooth="yes"/>
      <point x="59" y="603"/>
      <point x="50" y="583"/>
      <point x="50" y="568" type="curve"/>
      <point x="50" y="222" type="line"/>
      <point x="50" y="206"/>
      <point x="60" y="185"/>
      <point x="72" y="175" type="curve" smooth="yes"/>
      <point x="338" y="-42" type="line" smooth="yes"/>
      <point x="353" y="-54"/>
      <point x="379" y="-59"/>
    </contour>
    <contour>
      <point x="477" y="464" type="line"/>
      <point x="170" y="464" type="line"/>
      <point x="170" y="542" type="line"/>
      <point x="383" y="736" type="line"/>
      <point x="607" y="664" type="line"/>
    </contour>
    <contour>
      <point x="605" y="153" type="line"/>
      <point x="387" y="72" type="line"/>
      <point x="170" y="250" type="line"/>
      <point x="170" y="344" type="line"/>
      <point x="460" y="344" type="line"/>
    </contour>
  </outline>
</glyph>
<glyph name="F" format="1">
  <advance width="819"/>
  <unicode hex="0046"/>
  <outline>
    <contour>
      <point x="170" y="0" type="curve" smooth="yes"/>
      <point x="171" y="125" type="line"/>
      <point x="393" y="360" type="line" smooth="yes"/>
      <point x="415" y="383"/>
      <point x="415" y="420"/>
      <point x="394" y="442" type="curve" smooth="yes"/>
      <point x="213" y="637" type="line"/>
      <point x="421" y="731" type="line"/>
      <point x="674" y="553" type="line" smooth="yes"/>
      <point x="701" y="534"/>
      <point x="739" y="541"/>
      <point x="758" y="567" type="curve" smooth="yes"/>
      <point x="777" y="594"/>
      <point x="770" y="632"/>
      <point x="744" y="651" type="curve" smooth="yes"/>
      <point x="462" y="849" type="line" smooth="yes"/>
      <point x="446" y="860"/>
      <point x="420" y="862"/>
      <point x="403" y="855" type="curve" smooth="yes"/>
      <point x="87" y="712" type="line" smooth="yes"/>
      <point x="48" y="694"/>
      <point x="38" y="648"/>
      <point x="68" y="616" type="curve" smooth="yes"/>
      <point x="267" y="402" type="line"/>
      <point x="67" y="190" type="line" smooth="yes"/>
      <point x="58" y="180"/>
      <point x="51" y="162"/>
      <point x="51" y="149" type="curve" smooth="yes"/>
      <point x="50" y="0" type="line" smooth="yes"/>
      <point x="50" y="-32"/>
      <point x="77" y="-60"/>
      <point x="110" y="-60" type="curve" smooth="yes"/>
      <point x="142" y="-60"/>
      <point x="170" y="-33"/>
    </contour>
  </outline>
</glyph>
<glyph name="H" format="1">
  <advance width="820"/>
  <unicode hex="0048"/>
  <outline>
    <contour>
      <point x="710" y="-64" type="curve" smooth="yes"/>
      <point x="742" y="-64"/>
      <point x="770" y="-36"/>
      <point x="770" y="-4" type="curve" smooth="yes"/>
      <point x="770" y="696" type="line" smooth="yes"/>
      <point x="770" y="762"/>
      <point x="690" y="783"/>
      <point x="658" y="725" type="curve" smooth="yes"/>
      <point x="508" y="455" type="line"/>
      <point x="194" y="436" type="line" smooth="yes"/>
      <point x="186" y="435"/>
      <point x="177" y="433"/>
      <point x="170" y="428" type="curve"/>
      <point x="170" y="736" type="line"/>
      <point x="170" y="796" type="line" smooth="yes"/>
      <point x="170" y="828"/>
      <point x="142" y="856"/>
      <point x="110" y="856" type="curve" smooth="yes"/>
      <point x="78" y="856"/>
      <point x="50" y="828"/>
      <point x="50" y="796" type="curve" smooth="yes"/>
      <point x="50" y="736" type="line"/>
      <point x="50" y="386" type="line"/>
      <point x="52" y="46" type="line" smooth="yes"/>
      <point x="52" y="-27"/>
      <point x="151" y="-40"/>
      <point x="170" y="31" type="curve" smooth="yes"/>
      <point x="245" y="319" type="line"/>
      <point x="548" y="337" type="line" smooth="yes"/>
      <point x="566" y="339"/>
      <point x="588" y="352"/>
      <point x="597" y="368" type="curve" smooth="yes"/>
      <point x="650" y="464" type="line"/>
      <point x="650" y="-4" type="line" smooth="yes"/>
      <point x="650" y="-36"/>
      <point x="678" y="-64"/>
    </contour>
  </outline>
</glyph>
<glyph name="L" format="1">
  <advance width="820"/>
  <unicode hex="004C"/>
  <outline>
    <contour>
      <point x="450" y="-60" type="curve" smooth="yes"/>
      <point x="710" y="-60" type="line" smooth="yes"/>
      <point x="742" y="-60"/>
      <point x="770" y="-32"/>
      <point x="770" y="0" type="curve" smooth="yes"/>
      <point x="770" y="32"/>
      <point x="742" y="60"/>
      <point x="710" y="60" type="curve" smooth="yes"/>
      <point x="460" y="60" type="line"/>
      <point x="180" y="153" type="line"/>
      <point x="170" y="450" type="line"/>
      <point x="170" y="800" type="line" smooth="yes"/>
      <point x="170" y="832"/>
      <point x="142" y="860"/>
      <point x="110" y="860" type="curve" smooth="yes"/>
      <point x="78" y="860"/>
      <point x="50" y="832"/>
      <point x="50" y="800" type="curve" smooth="yes"/>
      <point x="50" y="450" type="line"/>
      <point x="62" y="107" type="line" smooth="yes"/>
      <point x="62" y="84"/>
      <point x="81" y="59"/>
      <point x="103" y="52" type="curve" smooth="yes"/>
      <point x="431" y="-57" type="line" smooth="yes"/>
      <point x="436" y="-59"/>
      <point x="445" y="-60"/>
    </contour>
  </outline>
</glyph>
<glyph name="O" format="1">
  <advance width="821"/>
  <unicode hex="004F"/>
  <outline>
    <contour>
      <point x="483" y="59" type="line"/>
      <point x="343" y="59" type="line"/>
      <point x="170" y="298" type="line"/>
      <point x="170" y="586" type="line"/>
      <point x="409" y="729" type="line"/>
      <point x="651" y="592" type="line"/>
      <point x="651" y="298" type="line"/>
    </contour>
    <contour>
      <point x="504" y="-61" type="line" smooth="yes"/>
      <point x="506" y="-61"/>
      <point x="508" y="-61"/>
      <point x="511" y="-61" type="curve"/>
      <point x="531" y="-62"/>
      <point x="551" y="-53"/>
      <point x="563" y="-36" type="curve" smooth="yes"/>
      <point x="760" y="244" type="line" smooth="yes"/>
      <point x="766" y="253"/>
      <point x="771" y="269"/>
      <point x="771" y="279" type="curve" smooth="yes"/>
      <point x="771" y="627" type="line" smooth="yes"/>
      <point x="771" y="646"/>
      <point x="757" y="670"/>
      <point x="740" y="679" type="curve" smooth="yes"/>
      <point x="438" y="851" type="line" smooth="yes"/>
      <point x="421" y="861"/>
      <point x="394" y="860"/>
      <point x="378" y="850" type="curve" smooth="yes"/>
      <point x="79" y="671" type="line" smooth="yes"/>
      <point x="63" y="661"/>
      <point x="50" y="638"/>
      <point x="50" y="619" type="curve" smooth="yes"/>
      <point x="50" y="279" type="line" smooth="yes"/>
      <point x="50" y="268"/>
      <point x="55" y="253"/>
      <point x="61" y="244" type="curve" smooth="yes"/>
      <point x="263" y="-36" type="line" smooth="yes"/>
      <point x="273" y="-50"/>
      <point x="295" y="-61"/>
      <point x="312" y="-61" type="curve" smooth="yes"/>
    </contour>
  </outline>
</glyph>
<glyph name="Q" format="1">
  <advance width="821"/>
  <unicode hex="0051"/>
  <outline>
    <contour>
      <point x="480" y="59" type="line"/>
      <point x="341" y="59" type="line"/>
      <point x="170" y="298" type="line"/>
      <point x="170" y="586" type="line"/>
      <point x="409" y="729" type="line"/>
      <point x="651" y="592" type="line"/>
      <point x="651" y="298" type="line"/>
    </contour>
    <contour>
      <point x="501" y="-61" type="line" smooth="yes"/>
      <point x="503" y="-61"/>
      <point x="505" y="-61"/>
      <point x="508" y="-61" type="curve"/>
      <point x="528" y="-61"/>
      <point x="548" y="-53"/>
      <point x="560" y="-36" type="curve" smooth="yes"/>
      <point x="760" y="244" type="line" smooth="yes"/>
      <point x="766" y="253"/>
      <point x="771" y="268"/>
      <point x="771" y="279" type="curve" smooth="yes"/>
      <point x="771" y="627" type="line" smooth="yes"/>
      <point x="771" y="646"/>
      <point x="757" y="670"/>
      <point x="740" y="679" type="curve" smooth="yes"/>
      <point x="438" y="851" type="line" smooth="yes"/>
      <point x="421" y="861"/>
      <point x="394" y="860"/>
      <point x="378" y="850" type="curve" smooth="yes"/>
      <point x="79" y="671" type="line" smooth="yes"/>
      <point x="63" y="661"/>
      <point x="50" y="638"/>
      <point x="50" y="619" type="curve" smooth="yes"/>
      <point x="50" y="279" type="line" smooth="yes"/>
      <point x="50" y="268"/>
      <point x="55" y="253"/>
      <point x="61" y="244" type="curve" smooth="yes"/>
      <point x="261" y="-36" type="line" smooth="yes"/>
      <point x="271" y="-50"/>
      <point x="293" y="-61"/>
      <point x="310" y="-61" type="curve" smooth="yes"/>
    </contour>
  </outline>
</glyph>
<glyph name="S" format="1">
  <advance width="820"/>
  <unicode hex="0053"/>
  <outline>
    <contour>
      <point x="576" y="-51" type="line" smooth="yes"/>
      <point x="600" y="-51"/>
      <point x="626" y="-32"/>
      <point x="633" y="-9" type="curve" smooth="yes"/>
      <point x="738" y="321" type="line" smooth="yes"/>
      <point x="749" y="356"/>
      <point x="728" y="391"/>
      <point x="692" y="398" type="curve" smooth="yes"/>
      <point x="372" y="459" type="line"/>
      <point x="211" y="641" type="line"/>
      <point x="422" y="735" type="line"/>
      <point x="676" y="555" type="line" smooth="yes"/>
      <point x="703" y="536"/>
      <point x="741" y="543"/>
      <point x="760" y="569" type="curve" smooth="yes"/>
      <point x="779" y="596"/>
      <point x="772" y="634"/>
      <point x="746" y="653" type="curve" smooth="yes"/>
      <point x="463" y="853" type="line" smooth="yes"/>
      <point x="448" y="864"/>
      <point x="421" y="866"/>
      <point x="404" y="859" type="curve" smooth="yes"/>
      <point x="88" y="718" type="line" smooth="yes"/>
      <point x="48" y="700"/>
      <point x="39" y="655"/>
      <point x="67" y="623" type="curve" smooth="yes"/>
      <point x="295" y="364" type="line" smooth="yes"/>
      <point x="303" y="356"/>
      <point x="318" y="347"/>
      <point x="329" y="345" type="curve" smooth="yes"/>
      <point x="603" y="293" type="line"/>
      <point x="532" y="70" type="line"/>
      <point x="261" y="71" type="line"/>
      <point x="161" y="235" type="line" smooth="yes"/>
      <point x="145" y="263"/>
      <point x="107" y="272"/>
      <point x="79" y="255" type="curve" smooth="yes"/>
      <point x="51" y="239"/>
      <point x="42" y="201"/>
      <point x="59" y="173" type="curve" smooth="yes"/>
      <point x="175" y="-20" type="line" smooth="yes"/>
      <point x="185" y="-36"/>
      <point x="208" y="-49"/>
      <point x="226" y="-49" type="curve" smooth="yes"/>
    </contour>
  </outline>
</glyph>
<glyph name="T" format="1">
  <advance width="532"/>
  <unicode hex="0054"/>
  <outline>
    <contour>
      <point x="410" y="-60" type="curve" smooth="yes"/>
      <point x="442" y="-60"/>
      <point x="470" y="-32"/>
      <point x="470" y="0" type="curve" smooth="yes"/>
      <point x="470" y="350" type="line"/>
      <point x="482" y="695" type="line" smooth="yes"/>
      <point x="483" y="719"/>
      <point x="465" y="746"/>
      <point x="441" y="754" type="curve" smooth="yes"/>
      <point x="129" y="857" type="line" smooth="yes"/>
      <point x="98" y="867"/>
      <point x="63" y="850"/>
      <point x="53" y="819" type="curve" smooth="yes"/>
      <point x="43" y="788"/>
      <point x="60" y="753"/>
      <point x="91" y="743" type="curve" smooth="yes"/>
      <point x="361" y="654" type="line"/>
      <point x="350" y="350" type="line"/>
      <point x="350" y="0" type="line" smooth="yes"/>
      <point x="350" y="-32"/>
      <point x="378" y="-60"/>
    </contour>
  </outline>
</glyph>
<glyph name="V" format="1">
  <advance width="820"/>
  <unicode hex="0056"/>
  <outline>
    <contour>
      <point x="632" y="-18" type="curve" smooth="yes"/>
      <point x="765" y="297" type="line" smooth="yes"/>
      <point x="768" y="303"/>
      <point x="770" y="313"/>
      <point x="770" y="320" type="curve" smooth="yes"/>
      <point x="770" y="800" type="line" smooth="yes"/>
      <point x="770" y="832"/>
      <point x="742" y="860"/>
      <point x="710" y="860" type="curve" smooth="yes"/>
      <point x="678" y="860"/>
      <point x="650" y="832"/>
      <point x="650" y="800" type="curve" smooth="yes"/>
      <point x="650" y="332" type="line"/>
      <point x="546" y="86" type="line"/>
      <point x="312" y="194" type="line"/>
      <point x="170" y="465" type="line"/>
      <point x="170" y="800" type="line" smooth="yes"/>
      <point x="170" y="832"/>
      <point x="142" y="860"/>
      <point x="110" y="860" type="curve" smooth="yes"/>
      <point x="78" y="860"/>
      <point x="50" y="832"/>
      <point x="50" y="800" type="curve" smooth="yes"/>
      <point x="50" y="450" type="line" smooth="yes"/>
      <point x="50" y="442"/>
      <point x="53" y="429"/>
      <point x="57" y="422" type="curve" smooth="yes"/>
      <point x="215" y="121" type="line" smooth="yes"/>
      <point x="220" y="111"/>
      <point x="232" y="99"/>
      <point x="243" y="94" type="curve" smooth="yes"/>
      <point x="552" y="-49" type="line" smooth="yes"/>
      <point x="583" y="-63"/>
      <point x="619" y="-49"/>
    </contour>
  </outline>
</glyph>
<glyph name="W" format="1">
  <advance width="820"/>
  <unicode hex="0057"/>
  <outline>
    <contour>
      <point x="667" y="-17" type="curve" smooth="yes"/>
      <point x="767" y="313" type="line" smooth="yes"/>
      <point x="769" y="317"/>
      <point x="770" y="325"/>
      <point x="770" y="330" type="curve" smooth="yes"/>
      <point x="770" y="800" type="line" smooth="yes"/>
      <point x="770" y="832"/>
      <point x="742" y="860"/>
      <point x="710" y="860" type="curve" smooth="yes"/>
      <point x="678" y="860"/>
      <point x="650" y="832"/>
      <point x="650" y="800" type="curve" smooth="yes"/>
      <point x="650" y="339" type="line"/>
      <point x="587" y="133" type="line"/>
      <point x="454" y="315" type="line" smooth="yes"/>
      <point x="436" y="340"/>
      <point x="400" y="347"/>
      <point x="374" y="331" type="curve" smooth="yes"/>
      <point x="170" y="207" type="line"/>
      <point x="170" y="800" type="line" smooth="yes"/>
      <point x="170" y="832"/>
      <point x="142" y="860"/>
      <point x="110" y="860" type="curve" smooth="yes"/>
      <point x="78" y="860"/>
      <point x="50" y="832"/>
      <point x="50" y="800" type="curve" smooth="yes"/>
      <point x="50" y="100" type="line"/>
      <point x="50" y="49"/>
      <point x="98" y="22"/>
      <point x="141" y="49" type="curve" smooth="yes"/>
      <point x="390" y="200" type="line"/>
      <point x="562" y="-35" type="line" smooth="yes"/>
      <point x="593" y="-79"/>
      <point x="652" y="-69"/>
    </contour>
  </outline>
</glyph>
<glyph name="X" format="1">
  <advance width="820"/>
  <unicode hex="0058"/>
  <outline>
    <contour>
      <point x="170" y="0" type="curve" smooth="yes"/>
      <point x="170" y="117" type="line"/>
      <point x="361" y="334" type="line"/>
      <point x="617" y="293" type="line"/>
      <point x="650" y="-7" type="line" smooth="yes"/>
      <point x="654" y="-39"/>
      <point x="684" y="-63"/>
      <point x="717" y="-60" type="curve" smooth="yes"/>
      <point x="749" y="-56"/>
      <point x="773" y="-26"/>
      <point x="770" y="7" type="curve" smooth="yes"/>
      <point x="731" y="351" type="line" smooth="yes"/>
      <point x="729" y="371"/>
      <point x="714" y="391"/>
      <point x="695" y="399" type="curve"/>
      <point x="715" y="407"/>
      <point x="732" y="428"/>
      <point x="734" y="449" type="curve" smooth="yes"/>
      <point x="770" y="794" type="line" smooth="yes"/>
      <point x="773" y="826"/>
      <point x="748" y="856"/>
      <point x="716" y="860" type="curve" smooth="yes"/>
      <point x="684" y="863"/>
      <point x="654" y="838"/>
      <point x="650" y="806" type="curve" smooth="yes"/>
      <point x="619" y="507" type="line"/>
      <point x="357" y="464" type="line"/>
      <point x="170" y="691" type="line"/>
      <point x="170" y="800" type="line" smooth="yes"/>
      <point x="170" y="832"/>
      <point x="142" y="860"/>
      <point x="110" y="860" type="curve" smooth="yes"/>
      <point x="78" y="860"/>
      <point x="50" y="832"/>
      <point x="50" y="800" type="curve" smooth="yes"/>
      <point x="50" y="670" type="line" smooth="yes"/>
      <point x="50" y="658"/>
      <point x="56" y="641"/>
      <point x="64" y="632" type="curve" smooth="yes"/>
      <point x="256" y="397" type="line"/>
      <point x="65" y="180" type="line" smooth="yes"/>
      <point x="57" y="170"/>
      <point x="50" y="152"/>
      <point x="50" y="140" type="curve"/>
      <point x="50" y="0" type="line" smooth="yes"/>
      <point x="50" y="-32"/>
      <point x="78" y="-60"/>
      <point x="110" y="-60" type="curve" smooth="yes"/>
      <point x="142" y="-60"/>
      <point x="170" y="-32"/>
    </contour>
  </outline>
</glyph>
<glyph name="Y" format="1">
  <advance width="819"/>
  <unicode hex="0059"/>
  <outline>
    <contour>
      <point x="409" y="-60" type="line" smooth="yes"/>
      <point x="418" y="-60"/>
      <point x="431" y="-57"/>
      <point x="439" y="-52" type="curve" smooth="yes"/>
      <point x="738" y="114" type="line" smooth="yes"/>
      <point x="755" y="124"/>
      <point x="769" y="148"/>
      <point x="769" y="168" type="curve" smooth="yes"/>
      <point x="759" y="510" type="line" smooth="yes"/>
      <point x="758" y="563"/>
      <point x="705" y="588"/>
      <point x="663" y="556" type="curve" smooth="yes"/>
      <point x="416" y="368" type="line"/>
      <point x="171" y="492" type="line"/>
      <point x="170" y="798" type="line" smooth="yes"/>
      <point x="170" y="831"/>
      <point x="142" y="858"/>
      <point x="110" y="858" type="curve" smooth="yes"/>
      <point x="77" y="858"/>
      <point x="50" y="830"/>
      <point x="50" y="798" type="curve" smooth="yes"/>
      <point x="51" y="454" type="line" smooth="yes"/>
      <point x="51" y="434"/>
      <point x="66" y="410"/>
      <point x="84" y="401" type="curve" smooth="yes"/>
      <point x="396" y="244" type="line" smooth="yes"/>
      <point x="414" y="235"/>
      <point x="442" y="238"/>
      <point x="459" y="250" type="curve" smooth="yes"/>
      <point x="643" y="390" type="line"/>
      <point x="648" y="201" type="line"/>
      <point x="394" y="60" type="line"/>
      <point x="110" y="61" type="line" smooth="yes"/>
      <point x="78" y="61"/>
      <point x="50" y="34"/>
      <point x="50" y="1" type="curve" smooth="yes"/>
      <point x="50" y="-31"/>
      <point x="77" y="-59"/>
      <point x="110" y="-59" type="curve" smooth="yes"/>
    </contour>
  </outline>
</glyph>
<glyph name="Z" format="1">
  <advance width="820"/>
  <unicode hex="005A"/>
  <outline>
    <contour>
      <point x="430" y="-60" type="curve" smooth="yes"/>
      <point x="710" y="-60" type="line" smooth="yes"/>
      <point x="742" y="-60"/>
      <point x="770" y="-32"/>
      <point x="770" y="0" type="curve" smooth="yes"/>
      <point x="770" y="32"/>
      <point x="742" y="60"/>
      <point x="710" y="60" type="curve" smooth="yes"/>
      <point x="458" y="60" type="line"/>
      <point x="299" y="254" type="line"/>
      <point x="527" y="406" type="line" smooth="yes"/>
      <point x="543" y="417"/>
      <point x="555" y="442"/>
      <point x="553" y="461" type="curve" smooth="yes"/>
      <point x="520" y="806" type="line" smooth="yes"/>
      <point x="517" y="836"/>
      <point x="490" y="860"/>
      <point x="460" y="860" type="curve" smooth="yes"/>
      <point x="110" y="860" type="line" smooth="yes"/>
      <point x="78" y="860"/>
      <point x="50" y="832"/>
      <point x="50" y="800" type="curve" smooth="yes"/>
      <point x="50" y="768"/>
      <point x="78" y="740"/>
      <point x="110" y="740" type="curve" smooth="yes"/>
      <point x="406" y="740" type="line"/>
      <point x="430" y="486" type="line"/>
      <point x="177" y="317" type="line" smooth="yes"/>
      <point x="146" y="296"/>
      <point x="141" y="257"/>
      <point x="164" y="228" type="curve" smooth="yes"/>
      <point x="384" y="-38" type="line" smooth="yes"/>
      <point x="394" y="-50"/>
      <point x="414" y="-60"/>
    </contour>
  </outline>
</glyph>
<glyph name="bracketleft" format="1">
  <advance width="520"/>
  <unicode hex="005B"/>
  <outline>
    <contour>
      <point x="320" y="-60" type="curve" smooth="yes"/>
      <point x="410" y="-60" type="line" smooth="yes"/>
      <point x="442" y="-60"/>
      <point x="470" y="-32"/>
      <point x="470" y="0" type="curve" smooth="yes"/>
      <point x="470" y="32"/>
      <point x="442" y="60"/>
      <point x="410" y="60" type="curve" smooth="yes"/>
      <point x="350" y="60" type="line"/>
      <point x="170" y="300" type="line"/>
      <point x="170" y="586" type="line"/>
      <point x="441" y="749" type="line" smooth="yes"/>
      <point x="469" y="765"/>
      <point x="478" y="803"/>
      <point x="461" y="831" type="curve" smooth="yes"/>
      <point x="445" y="859"/>
      <point x="407" y="868"/>
      <point x="379" y="851" type="curve" smooth="yes"/>
      <point x="79" y="671" type="line" smooth="yes"/>
      <point x="63" y="662"/>
      <point x="50" y="639"/>
      <point x="50" y="620" type="curve"/>
      <point x="50" y="280" type="line" smooth="yes"/>
      <point x="50" y="269"/>
      <point x="55" y="253"/>
      <point x="62" y="244" type="curve" smooth="yes"/>
      <point x="272" y="-36" type="line" smooth="yes"/>
      <point x="282" y="-49"/>
      <point x="303" y="-60"/>
    </contour>
  </outline>
</glyph>
<glyph name="bracketright" format="1">
  <advance width="520"/>
  <unicode hex="005D"/>
  <outline>
    <contour>
      <point x="110" y="-61" type="curve" smooth="yes"/>
      <point x="200" y="-61" type="line" smooth="yes"/>
      <point x="217" y="-61"/>
      <point x="238" y="-50"/>
      <point x="248" y="-37" type="curve" smooth="yes"/>
      <point x="458" y="243" type="line" smooth="yes"/>
      <point x="465" y="252"/>
      <point x="470" y="268"/>
      <point x="470" y="279" type="curve" smooth="yes"/>
      <point x="470" y="619" type="line" smooth="yes"/>
      <point x="470" y="638"/>
      <point x="457" y="661"/>
      <point x="441" y="670" type="curve" smooth="yes"/>
      <point x="141" y="850" type="line" smooth="yes"/>
      <point x="113" y="867"/>
      <point x="75" y="858"/>
      <point x="59" y="830" type="curve" smooth="yes"/>
      <point x="42" y="802"/>
      <point x="51" y="764"/>
      <point x="79" y="748" type="curve" smooth="yes"/>
      <point x="350" y="585" type="line"/>
      <point x="350" y="299" type="line"/>
      <point x="170" y="59" type="line"/>
      <point x="110" y="59" type="line" smooth="yes"/>
      <point x="78" y="59"/>
      <point x="50" y="31"/>
      <point x="50" y="-1" type="curve" smooth="yes"/>
      <point x="50" y="-33"/>
      <point x="78" y="-61"/>
    </contour>
  </outline>
</glyph>
<glyph name="asciicircum" format="1">
  <advance width="819"/>
  <unicode hex="005E"/>
  <outline>
    <contour>
      <point x="760" y="469" type="curve" smooth="yes"/>
      <point x="778" y="496"/>
      <point x="770" y="534"/>
      <point x="743" y="552" type="curve" smooth="yes"/>
      <point x="724" y="565" type="line"/>
      <point x="424" y="743" type="line" smooth="yes"/>
      <point x="406" y="753"/>
      <point x="377" y="752"/>
      <point x="360" y="741" type="curve" smooth="yes"/>
      <point x="77" y="552" type="line" smooth="yes"/>
      <point x="50" y="534"/>
      <point x="42" y="496"/>
      <point x="60" y="469" type="curve" smooth="yes"/>
      <point x="78" y="442"/>
      <point x="116" y="434"/>
      <point x="143" y="452" type="curve" smooth="yes"/>
      <point x="395" y="620" type="line"/>
      <point x="663" y="461" type="line"/>
      <point x="677" y="452" type="line" smooth="yes"/>
      <point x="704" y="434"/>
      <point x="742" y="442"/>
    </contour>
  </outline>
</glyph>
<glyph name="underscore" format="1">
  <advance width="796"/>
  <unicode hex="005F"/>
  <outline>
    <contour>
      <point x="110" y="-245" type="curve" smooth="yes"/>
      <point x="686" y="-245" type="line" smooth="yes"/>
      <point x="718" y="-245"/>
      <point x="746" y="-217"/>
      <point x="746" y="-185" type="curve" smooth="yes"/>
      <point x="746" y="-153"/>
      <point x="718" y="-125"/>
      <point x="686" y="-125" type="curve" smooth="yes"/>
      <point x="110" y="-125" type="line" smooth="yes"/>
      <point x="78" y="-125"/>
      <point x="50" y="-153"/>
      <point x="50" y="-185" type="curve" smooth="yes"/>
      <point x="50" y="-217"/>
      <point x="78" y="-245"/>
    </contour>
  </outline>
</glyph>
<glyph name="grave" format="1">
  <advance width="519"/>
  <unicode hex="0060"/>
  <outline>
    <contour>
      <point x="460" y="895" type="curve" smooth="yes"/>
      <point x="478" y="922"/>
      <point x="470" y="960"/>
      <point x="443" y="978" type="curve" smooth="yes"/>
      <point x="160" y="1167" type="line"/>
      <point x="143" y="1178" type="line" smooth="yes"/>
      <point x="116" y="1196"/>
      <point x="78" y="1188"/>
      <point x="60" y="1161" type="curve" smooth="yes"/>
      <point x="42" y="1134"/>
      <point x="50" y="1096"/>
      <point x="77" y="1078" type="curve" smooth="yes"/>
      <point x="93" y="1067" type="line"/>
      <point x="377" y="878" type="line" smooth="yes"/>
      <point x="404" y="860"/>
      <point x="442" y="868"/>
    </contour>
  </outline>
</glyph>
<glyph name="c" format="1">
  <advance width="820"/>
  <unicode hex="0063"/>
  <outline>
    <contour>
      <point x="620" y="-47" type="line" smooth="yes"/>
      <point x="639" y="-46"/>
      <point x="662" y="-32"/>
      <point x="671" y="-14" type="curve" smooth="yes"/>
      <point x="764" y="171" type="line" smooth="yes"/>
      <point x="778" y="200"/>
      <point x="766" y="237"/>
      <point x="737" y="252" type="curve" smooth="yes"/>
      <point x="708" y="266"/>
      <point x="671" y="254"/>
      <point x="656" y="225" type="curve" smooth="yes"/>
      <point x="580" y="71" type="line"/>
      <point x="310" y="60" type="line"/>
      <point x="170" y="320" type="line"/>
      <point x="171" y="614" type="line"/>
      <point x="422" y="729" type="line"/>
      <point x="675" y="549" type="line" smooth="yes"/>
      <point x="702" y="530"/>
      <point x="740" y="537"/>
      <point x="759" y="563" type="curve" smooth="yes"/>
      <point x="778" y="590"/>
      <point x="771" y="628"/>
      <point x="745" y="647" type="curve" smooth="yes"/>
      <point x="463" y="847" type="line" smooth="yes"/>
      <point x="447" y="858"/>
      <point x="420" y="861"/>
      <point x="403" y="853" type="curve" smooth="yes"/>
      <point x="86" y="707" type="line" smooth="yes"/>
      <point x="67" y="698"/>
      <point x="51" y="674"/>
      <point x="51" y="653" type="curve" smooth="yes"/>
      <point x="50" y="305" type="line" smooth="yes"/>
      <point x="50" y="297"/>
      <point x="53" y="284"/>
      <point x="57" y="277" type="curve" smooth="yes"/>
      <point x="222" y="-30" type="line" smooth="yes"/>
      <point x="232" y="-48"/>
      <point x="256" y="-62"/>
      <point x="277" y="-62" type="curve" smooth="yes"/>
    </contour>
  </outline>
</glyph>
<glyph name="d" format="1">
  <advance width="820"/>
  <unicode hex="0064"/>
  <outline>
    <contour>
      <point x="251" y="-61" type="curve" smooth="yes"/>
      <point x="595" y="-54" type="line" smooth="yes"/>
      <point x="617" y="-54"/>
      <point x="642" y="-36"/>
      <point x="650" y="-14" type="curve" smooth="yes"/>
      <point x="766" y="309" type="line" smooth="yes"/>
      <point x="768" y="314"/>
      <point x="770" y="323"/>
      <point x="770" y="329" type="curve" smooth="yes"/>
      <point x="770" y="589" type="line" smooth="yes"/>
      <point x="770" y="591"/>
      <point x="770" y="594"/>
      <point x="770" y="596" type="curve"/>
      <point x="771" y="615"/>
      <point x="762" y="636"/>
      <point x="745" y="648" type="curve" smooth="yes"/>
      <point x="465" y="848" type="line" smooth="yes"/>
      <point x="449" y="859"/>
      <point x="423" y="862"/>
      <point x="406" y="854" type="curve" smooth="yes"/>
      <point x="86" y="714" type="line" smooth="yes"/>
      <point x="66" y="705"/>
      <point x="50" y="681"/>
      <point x="50" y="659" type="curve"/>
      <point x="50" y="319" type="line" smooth="yes"/>
      <point x="50" y="312"/>
      <point x="52" y="301"/>
      <point x="55" y="295" type="curve" smooth="yes"/>
      <point x="195" y="-25" type="line" smooth="yes"/>
      <point x="204" y="-45"/>
      <point x="229" y="-61"/>
    </contour>
    <contour>
      <point x="289" y="60" type="line"/>
      <point x="170" y="332" type="line"/>
      <point x="170" y="620" type="line"/>
      <point x="423" y="730" type="line"/>
      <point x="650" y="568" type="line"/>
      <point x="650" y="339" type="line"/>
      <point x="551" y="65" type="line"/>
    </contour>
  </outline>
</glyph>
<glyph name="e" format="1">
  <advance width="819"/>
  <unicode hex="0065"/>
  <outline>
    <contour>
      <point x="509" y="-60" type="line" smooth="yes"/>
      <point x="512" y="-60"/>
      <point x="516" y="-60"/>
      <point x="519" y="-59" type="curve"/>
      <point x="532" y="-57"/>
      <point x="544" y="-52"/>
      <point x="553" y="-43" type="curve" smooth="yes"/>
      <point x="751" y="153" type="line" smooth="yes"/>
      <point x="774" y="176"/>
      <point x="774" y="215"/>
      <point x="752" y="238" type="curve" smooth="yes"/>
      <point x="729" y="261"/>
      <point x="690" y="261"/>
      <point x="667" y="239" type="curve" smooth="yes"/>
      <point x="486" y="60" type="line"/>
      <point x="442" y="60" type="line"/>
      <point x="213" y="157" type="line"/>
      <point x="384" y="363" type="line" smooth="yes"/>
      <point x="402" y="385"/>
      <point x="401" y="420"/>
      <point x="382" y="441" type="curve" smooth="yes"/>
      <point x="210" y="636" type="line"/>
      <point x="420" y="731" type="line"/>
      <point x="673" y="553" type="line" smooth="yes"/>
      <point x="700" y="534"/>
      <point x="738" y="541"/>
      <point x="757" y="567" type="curve" smooth="yes"/>
      <point x="776" y="594"/>
      <point x="769" y="632"/>
      <point x="743" y="651" type="curve" smooth="yes"/>
      <point x="461" y="849" type="line" smooth="yes"/>
      <point x="445" y="860"/>
      <point x="419" y="862"/>
      <point x="402" y="855" type="curve" smooth="yes"/>
      <point x="86" y="712" type="line" smooth="yes"/>
      <point x="47" y="694"/>
      <point x="38" y="649"/>
      <point x="66" y="617" type="curve" smooth="yes"/>
      <point x="259" y="400" type="line"/>
      <point x="69" y="171" type="line" smooth="yes"/>
      <point x="42" y="138"/>
      <point x="53" y="94"/>
      <point x="92" y="78" type="curve" smooth="yes"/>
      <point x="407" y="-55" type="line" smooth="yes"/>
      <point x="413" y="-58"/>
      <point x="423" y="-60"/>
      <point x="430" y="-60" type="curve" smooth="yes"/>
    </contour>
  </outline>
</glyph>
<glyph name="f" format="1">
  <advance width="819"/>
  <unicode hex="0066"/>
  <outline>
    <contour>
      <point x="170" y="0" type="curve" smooth="yes"/>
      <point x="191" y="312" type="line" smooth="yes"/>
      <point x="191" y="314"/>
      <point x="191" y="317"/>
      <point x="191" y="319" type="curve" smooth="yes"/>
      <point x="174" y="623" type="line"/>
      <point x="421" y="735" type="line"/>
      <point x="674" y="557" type="line" smooth="yes"/>
      <point x="701" y="538"/>
      <point x="739" y="545"/>
      <point x="758" y="571" type="curve" smooth="yes"/>
      <point x="777" y="598"/>
      <point x="770" y="636"/>
      <point x="744" y="655" type="curve" smooth="yes"/>
      <point x="462" y="853" type="line" smooth="yes"/>
      <point x="446" y="864"/>
      <point x="420" y="866"/>
      <point x="403" y="859" type="curve" smooth="yes"/>
      <point x="87" y="716" type="line" smooth="yes"/>
      <point x="67" y="706"/>
      <point x="51" y="680"/>
      <point x="52" y="658" type="curve" smooth="yes"/>
      <point x="71" y="317" type="line"/>
      <point x="50" y="8" type="line" smooth="yes"/>
      <point x="48" y="-24"/>
      <point x="74" y="-54"/>
      <point x="106" y="-56" type="curve" smooth="yes"/>
      <point x="138" y="-58"/>
      <point x="168" y="-32"/>
    </contour>
    <contour>
      <point x="250" y="404" type="curve" smooth="yes"/>
      <point x="250" y="372"/>
      <point x="278" y="344"/>
      <point x="310" y="344" type="curve" smooth="yes"/>
      <point x="510" y="344" type="line" smooth="yes"/>
      <point x="542" y="344"/>
      <point x="570" y="372"/>
      <point x="570" y="404" type="curve" smooth="yes"/>
      <point x="570" y="436"/>
      <point x="542" y="464"/>
      <point x="510" y="464" type="curve" smooth="yes"/>
      <point x="310" y="464" type="line" smooth="yes"/>
      <point x="278" y="464"/>
      <point x="250" y="436"/>
    </contour>
  </outline>
</glyph>
<glyph name="g" format="1">
  <advance width="820"/>
  <unicode hex="0067"/>
  <outline>
    <contour>
      <point x="605" y="-44" type="line" smooth="yes"/>
      <point x="628" y="-44"/>
      <point x="653" y="-25"/>
      <point x="660" y="-3" type="curve" smooth="yes"/>
      <point x="767" y="325" type="line" smooth="yes"/>
      <point x="778" y="359"/>
      <point x="759" y="393"/>
      <point x="726" y="402" type="curve" smooth="yes"/>
      <point x="422" y="484" type="line"/>
      <point x="366" y="626" type="line" smooth="yes"/>
      <point x="354" y="656"/>
      <point x="318" y="672"/>
      <point x="288" y="660" type="curve" smooth="yes"/>
      <point x="258" y="648"/>
      <point x="242" y="612"/>
      <point x="254" y="582" type="curve" smooth="yes"/>
      <point x="321" y="412" type="line" smooth="yes"/>
      <point x="327" y="397"/>
      <point x="345" y="381"/>
      <point x="361" y="376" type="curve" smooth="yes"/>
      <point x="633" y="303" type="line"/>
      <point x="559" y="75" type="line"/>
      <point x="299" y="68" type="line"/>
      <point x="170" y="328" type="line"/>
      <point x="172" y="624" type="line"/>
      <point x="421" y="735" type="line"/>
      <point x="675" y="555" type="line" smooth="yes"/>
      <point x="702" y="536"/>
      <point x="740" y="543"/>
      <point x="759" y="569" type="curve" smooth="yes"/>
      <point x="778" y="596"/>
      <point x="771" y="634"/>
      <point x="745" y="653" type="curve" smooth="yes"/>
      <point x="463" y="853" type="line" smooth="yes"/>
      <point x="447" y="864"/>
      <point x="421" y="866"/>
      <point x="404" y="859" type="curve" smooth="yes"/>
      <point x="88" y="718" type="line" smooth="yes"/>
      <point x="68" y="709"/>
      <point x="52" y="684"/>
      <point x="52" y="663" type="curve" smooth="yes"/>
      <point x="50" y="314" type="line" smooth="yes"/>
      <point x="50" y="307"/>
      <point x="53" y="294"/>
      <point x="56" y="287" type="curve" smooth="yes"/>
      <point x="208" y="-20" type="line" smooth="yes"/>
      <point x="217" y="-39"/>
      <point x="242" y="-53"/>
      <point x="263" y="-53" type="curve" smooth="yes"/>
    </contour>
  </outline>
</glyph>
<glyph name="j" format="1">
  <advance width="820"/>
  <unicode hex="006A"/>
  <outline>
    <contour>
      <point x="132" y="-57" type="curve" smooth="yes"/>
      <point x="425" y="59" type="line" smooth="yes"/>
      <point x="446" y="67"/>
      <point x="463" y="92"/>
      <point x="463" y="114" type="curve" smooth="yes"/>
      <point x="470" y="458" type="line" smooth="yes"/>
      <point x="470" y="461"/>
      <point x="470" y="465"/>
      <point x="469" y="468" type="curve" smooth="yes"/>
      <point x="429" y="739" type="line"/>
      <point x="710" y="739" type="line" smooth="yes"/>
      <point x="742" y="739"/>
      <point x="770" y="767"/>
      <point x="770" y="799" type="curve" smooth="yes"/>
      <point x="770" y="831"/>
      <point x="742" y="859"/>
      <point x="710" y="859" type="curve" smooth="yes"/>
      <point x="360" y="859" type="line" smooth="yes"/>
      <point x="322" y="859"/>
      <point x="295" y="828"/>
      <point x="301" y="790" type="curve" smooth="yes"/>
      <point x="350" y="456" type="line"/>
      <point x="344" y="156" type="line"/>
      <point x="88" y="55" type="line" smooth="yes"/>
      <point x="58" y="43"/>
      <point x="42" y="7"/>
      <point x="54" y="-23" type="curve" smooth="yes"/>
      <point x="66" y="-53"/>
      <point x="102" y="-69"/>
    </contour>
  </outline>
</glyph>
<glyph name="k" format="1">
  <advance width="820"/>
  <unicode hex="006B"/>
  <outline>
    <contour>
      <point x="716" y="-56" type="curve" smooth="yes"/>
      <point x="749" y="-52"/>
      <point x="773" y="-22"/>
      <point x="770" y="10" type="curve" smooth="yes"/>
      <point x="733" y="354" type="line" smooth="yes"/>
      <point x="731" y="379"/>
      <point x="708" y="403"/>
      <point x="683" y="407" type="curve" smooth="yes"/>
      <point x="596" y="421" type="line"/>
      <point x="758" y="649" type="line" smooth="yes"/>
      <point x="764" y="658"/>
      <point x="769" y="673"/>
      <point x="769" y="684" type="curve" smooth="yes"/>
      <point x="770" y="804" type="line" smooth="yes"/>
      <point x="770" y="836"/>
      <point x="743" y="864"/>
      <point x="710" y="864" type="curve" smooth="yes"/>
      <point x="678" y="864"/>
      <point x="650" y="837"/>
      <point x="650" y="804" type="curve" smooth="yes"/>
      <point x="649" y="703" type="line"/>
      <point x="464" y="443" type="line"/>
      <point x="340" y="463" type="line" smooth="yes"/>
      <point x="320" y="466"/>
      <point x="295" y="457"/>
      <point x="283" y="441" type="curve" smooth="yes"/>
      <point x="173" y="303" type="line"/>
      <point x="170" y="475" type="line"/>
      <point x="170" y="804" type="line" smooth="yes"/>
      <point x="170" y="836"/>
      <point x="142" y="864"/>
      <point x="110" y="864" type="curve" smooth="yes"/>
      <point x="78" y="864"/>
      <point x="50" y="836"/>
      <point x="50" y="804" type="curve" smooth="yes"/>
      <point x="50" y="473" type="line"/>
      <point x="56" y="133" type="line" smooth="yes"/>
      <point x="57" y="72"/>
      <point x="125" y="49"/>
      <point x="163" y="97" type="curve" smooth="yes"/>
      <point x="355" y="339" type="line"/>
      <point x="619" y="296" type="line"/>
      <point x="650" y="-2" type="line" smooth="yes"/>
      <point x="654" y="-35"/>
      <point x="684" y="-59"/>
    </contour>
  </outline>
</glyph>
<glyph name="m" format="1">
  <advance width="820"/>
  <unicode hex="006D"/>
  <outline>
    <contour>
      <point x="710" y="-61" type="curve" smooth="yes"/>
      <point x="742" y="-61"/>
      <point x="770" y="-33"/>
      <point x="770" y="-1" type="curve" smooth="yes"/>
      <point x="770" y="699" type="line" smooth="yes"/>
      <point x="770" y="750"/>
      <point x="722" y="777"/>
      <point x="679" y="750" type="curve" smooth="yes"/>
      <point x="431" y="599" type="line"/>
      <point x="258" y="834" type="line" smooth="yes"/>
      <point x="227" y="878"/>
      <point x="168" y="868"/>
      <point x="153" y="816" type="curve" smooth="yes"/>
      <point x="53" y="486" type="line" smooth="yes"/>
      <point x="51" y="482"/>
      <point x="50" y="474"/>
      <point x="50" y="469" type="curve" smooth="yes"/>
      <point x="50" y="-1" type="line" smooth="yes"/>
      <point x="50" y="-33"/>
      <point x="78" y="-61"/>
      <point x="110" y="-61" type="curve" smooth="yes"/>
      <point x="142" y="-61"/>
      <point x="170" y="-33"/>
      <point x="170" y="-1" type="curve" smooth="yes"/>
      <point x="170" y="460" type="line"/>
      <point x="233" y="667" type="line"/>
      <point x="367" y="484" type="line" smooth="yes"/>
      <point x="385" y="459"/>
      <point x="420" y="452"/>
      <point x="446" y="468" type="curve" smooth="yes"/>
      <point x="650" y="592" type="line"/>
      <point x="650" y="-1" type="line" smooth="yes"/>
      <point x="650" y="-33"/>
      <point x="678" y="-61"/>
    </contour>
  </outline>
</glyph>
<glyph name="n" format="1">
  <advance width="820"/>
  <unicode hex="006E"/>
  <outline>
    <contour>
      <point x="170" y="-1" type="curve" smooth="yes"/>
      <point x="170" y="109" type="line"/>
      <point x="170" y="457" type="line"/>
      <point x="177" y="692" type="line"/>
      <point x="350" y="584" type="line"/>
      <point x="350" y="279" type="line" smooth="yes"/>
      <point x="350" y="260"/>
      <point x="363" y="237"/>
      <point x="379" y="228" type="curve" smooth="yes"/>
      <point x="679" y="48" type="line" smooth="yes"/>
      <point x="723" y="21"/>
      <point x="770" y="48"/>
      <point x="770" y="99" type="curve" smooth="yes"/>
      <point x="770" y="799" type="line" smooth="yes"/>
      <point x="770" y="831"/>
      <point x="742" y="859"/>
      <point x="710" y="859" type="curve" smooth="yes"/>
      <point x="678" y="859"/>
      <point x="650" y="831"/>
      <point x="650" y="799" type="curve" smooth="yes"/>
      <point x="650" y="205" type="line"/>
      <point x="470" y="313" type="line"/>
      <point x="470" y="617" type="line" smooth="yes"/>
      <point x="470" y="635"/>
      <point x="457" y="658"/>
      <point x="442" y="668" type="curve" smooth="yes"/>
      <point x="152" y="850" type="line" smooth="yes"/>
      <point x="109" y="877"/>
      <point x="62" y="851"/>
      <point x="60" y="801" type="curve" smooth="yes"/>
      <point x="50" y="461" type="line"/>
      <point x="50" y="109" type="line"/>
      <point x="50" y="-1" type="line" smooth="yes"/>
      <point x="50" y="-33"/>
      <point x="78" y="-61"/>
      <point x="110" y="-61" type="curve" smooth="yes"/>
      <point x="142" y="-61"/>
      <point x="170" y="-33"/>
    </contour>
  </outline>
</glyph>
<glyph name="p" format="1">
  <advance width="819"/>
  <unicode hex="0070"/>
  <outline>
    <contour>
      <point x="110" y="-57" type="curve" smooth="yes"/>
      <point x="142" y="-57"/>
      <point x="170" y="-29"/>
      <point x="170" y="3" type="curve" smooth="yes"/>
      <point x="170" y="69" type="line"/>
      <point x="421" y="255" type="line"/>
      <point x="733" y="393" type="line" smooth="yes"/>
      <point x="758" y="404"/>
      <point x="774" y="435"/>
      <point x="767" y="463" type="curve" smooth="yes"/>
      <point x="681" y="798" type="line" smooth="yes"/>
      <point x="675" y="821"/>
      <point x="651" y="841"/>
      <point x="627" y="843" type="curve" smooth="yes"/>
      <point x="294" y="863" type="line" smooth="yes"/>
      <point x="274" y="864"/>
      <point x="249" y="851"/>
      <point x="239" y="834" type="curve" smooth="yes"/>
      <point x="59" y="534" type="line" smooth="yes"/>
      <point x="54" y="526"/>
      <point x="50" y="512"/>
      <point x="50" y="503" type="curve" smooth="yes"/>
      <point x="50" y="3" type="line" smooth="yes"/>
      <point x="50" y="-29"/>
      <point x="78" y="-57"/>
    </contour>
    <contour>
      <point x="366" y="362" type="line" smooth="yes"/>
      <point x="363" y="360"/>
      <point x="358" y="357"/>
      <point x="355" y="355" type="curve" smooth="yes"/>
      <point x="170" y="218" type="line"/>
      <point x="170" y="486" type="line"/>
      <point x="323" y="741" type="line"/>
      <point x="576" y="726" type="line"/>
      <point x="638" y="482" type="line"/>
    </contour>
  </outline>
</glyph>
<glyph name="r" format="1">
  <advance width="821"/>
  <unicode hex="0072"/>
  <outline>
    <contour>
      <point x="310" y="356" type="line" smooth="yes"/>
      <point x="190" y="356" type="line" smooth="yes"/>
      <point x="183" y="356"/>
      <point x="176" y="355"/>
      <point x="170" y="353" type="curve"/>
      <point x="177" y="643" type="line"/>
      <point x="436" y="729" type="line"/>
      <point x="630" y="566" type="line"/>
      <point x="480" y="356" type="line"/>
      <point x="310" y="356" type="line"/>
    </contour>
    <contour>
      <point x="170" y="-4" type="curve" smooth="yes"/>
      <point x="170" y="239" type="line"/>
      <point x="176" y="237"/>
      <point x="183" y="236"/>
      <point x="190" y="236" type="curve" smooth="yes"/>
      <point x="498" y="236" type="line"/>
      <point x="660" y="-35" type="line" smooth="yes"/>
      <point x="676" y="-63"/>
      <point x="714" y="-72"/>
      <point x="742" y="-55" type="curve" smooth="yes"/>
      <point x="770" y="-39"/>
      <point x="779" y="-1"/>
      <point x="762" y="27" type="curve" smooth="yes"/>
      <point x="594" y="309" type="line"/>
      <point x="760" y="541" type="line" smooth="yes"/>
      <point x="778" y="566"/>
      <point x="773" y="602"/>
      <point x="750" y="622" type="curve" smooth="yes"/>
      <point x="487" y="842" type="line" smooth="yes"/>
      <point x="473" y="854"/>
      <point x="447" y="859"/>
      <point x="430" y="853" type="curve" smooth="yes"/>
      <point x="99" y="744" type="line" smooth="yes"/>
      <point x="77" y="737"/>
      <point x="59" y="712"/>
      <point x="58" y="688" type="curve" smooth="yes"/>
      <point x="50" y="347" type="line"/>
      <point x="50" y="-4" type="line" smooth="yes"/>
      <point x="50" y="-36"/>
      <point x="78" y="-64"/>
      <point x="110" y="-64" type="curve" smooth="yes"/>
      <point x="142" y="-64"/>
      <point x="170" y="-36"/>
    </contour>
  </outline>
</glyph>
<glyph name="u" format="1">
  <advance width="819"/>
  <unicode hex="0075"/>
  <outline>
    <contour>
      <point x="389" y="-58" type="curve" smooth="yes"/>
      <point x="716" y="42" type="line" smooth="yes"/>
      <point x="739" y="49"/>
      <point x="758" y="74"/>
      <point x="758" y="98" type="curve" smooth="yes"/>
      <point x="769" y="449" type="line"/>
      <point x="769" y="799" type="line" smooth="yes"/>
      <point x="769" y="831"/>
      <point x="741" y="859"/>
      <point x="709" y="859" type="curve" smooth="yes"/>
      <point x="677" y="859"/>
      <point x="649" y="831"/>
      <point x="649" y="799" type="curve" smooth="yes"/>
      <point x="649" y="449" type="line"/>
      <point x="640" y="144" type="line"/>
      <point x="386" y="66" type="line"/>
      <point x="170" y="256" type="line"/>
      <point x="170" y="799" type="line" smooth="yes"/>
      <point x="170" y="831"/>
      <point x="142" y="859"/>
      <point x="110" y="859" type="curve" smooth="yes"/>
      <point x="78" y="859"/>
      <point x="50" y="831"/>
      <point x="50" y="799" type="curve" smooth="yes"/>
      <point x="50" y="229" type="line" smooth="yes"/>
      <point x="50" y="214"/>
      <point x="59" y="194"/>
      <point x="70" y="184" type="curve" smooth="yes"/>
      <point x="332" y="-46" type="line" smooth="yes"/>
      <point x="346" y="-58"/>
      <point x="372" y="-64"/>
    </contour>
  </outline>
</glyph>
<glyph name="braceleft" format="1">
  <advance width="525"/>
  <unicode hex="007B"/>
  <outline>
    <contour>
      <point x="325" y="-62" type="curve" smooth="yes"/>
      <point x="415" y="-62" type="line" smooth="yes"/>
      <point x="447" y="-62"/>
      <point x="475" y="-34"/>
      <point x="475" y="-2" type="curve" smooth="yes"/>
      <point x="475" y="30"/>
      <point x="447" y="58"/>
      <point x="415" y="58" type="curve" smooth="yes"/>
      <point x="354" y="58" type="line"/>
      <point x="170" y="294" type="line"/>
      <point x="175" y="584" type="line"/>
      <point x="446" y="747" type="line" smooth="yes"/>
      <point x="474" y="763"/>
      <point x="483" y="801"/>
      <point x="466" y="829" type="curve" smooth="yes"/>
      <point x="450" y="857"/>
      <point x="412" y="866"/>
      <point x="384" y="849" type="curve" smooth="yes"/>
      <point x="84" y="670" type="line" smooth="yes"/>
      <point x="68" y="661"/>
      <point x="55" y="638"/>
      <point x="55" y="620" type="curve" smooth="yes"/>
      <point x="50" y="274" type="line" smooth="yes"/>
      <point x="50" y="263"/>
      <point x="55" y="246"/>
      <point x="63" y="236" type="curve" smooth="yes"/>
      <point x="278" y="-39" type="line" smooth="yes"/>
      <point x="288" y="-52"/>
      <point x="309" y="-62"/>
    </contour>
  </outline>
</glyph>
<glyph name="braceright" format="1">
  <advance width="525"/>
  <unicode hex="007D"/>
  <outline>
    <contour>
      <point x="110" y="-61" type="curve" smooth="yes"/>
      <point x="200" y="-61" type="line" smooth="yes"/>
      <point x="216" y="-61"/>
      <point x="237" y="-51"/>
      <point x="247" y="-38" type="curve" smooth="yes"/>
      <point x="462" y="237" type="line" smooth="yes"/>
      <point x="470" y="247"/>
      <point x="475" y="264"/>
      <point x="475" y="275" type="curve" smooth="yes"/>
      <point x="470" y="621" type="line" smooth="yes"/>
      <point x="470" y="639"/>
      <point x="457" y="662"/>
      <point x="441" y="671" type="curve" smooth="yes"/>
      <point x="141" y="850" type="line" smooth="yes"/>
      <point x="113" y="867"/>
      <point x="75" y="858"/>
      <point x="59" y="830" type="curve" smooth="yes"/>
      <point x="42" y="802"/>
      <point x="51" y="764"/>
      <point x="79" y="748" type="curve" smooth="yes"/>
      <point x="350" y="585" type="line"/>
      <point x="355" y="295" type="line"/>
      <point x="171" y="59" type="line"/>
      <point x="110" y="59" type="line" smooth="yes"/>
      <point x="78" y="59"/>
      <point x="50" y="31"/>
      <point x="50" y="-1" type="curve" smooth="yes"/>
      <point x="50" y="-33"/>
      <point x="78" y="-61"/>
    </contour>
  </outline>
</glyph>
<glyph name="asciitilde" format="1">
  <advance width="820"/>
  <unicode hex="007E"/>
  <outline>
    <contour>
      <point x="145" y="54" type="curve" smooth="yes"/>
      <point x="409" y="243" type="line"/>
      <point x="710" y="243" type="line" smooth="yes"/>
      <point x="742" y="243"/>
      <point x="770" y="271"/>
      <point x="770" y="303" type="curve" smooth="yes"/>
      <point x="770" y="335"/>
      <point x="742" y="363"/>
      <point x="710" y="363" type="curve" smooth="yes"/>
      <point x="390" y="363" type="line" smooth="yes"/>
      <point x="379" y="363"/>
      <point x="364" y="358"/>
      <point x="355" y="352" type="curve" smooth="yes"/>
      <point x="75" y="152" type="line" smooth="yes"/>
      <point x="49" y="133"/>
      <point x="42" y="94"/>
      <point x="61" y="68" type="curve" smooth="yes"/>
      <point x="80" y="42"/>
      <point x="119" y="35"/>
    </contour>
  </outline>
</glyph>
<glyph name="cent" format="1">
  <advance width="565"/>
  <unicode hex="00A2"/>
  <outline>
    <contour>
      <point x="414" y="-100" type="curve" smooth="yes"/>
      <point x="414" y="-58" type="line"/>
      <point x="451" y="-60" type="line" smooth="yes"/>
      <point x="483" y="-62"/>
      <point x="512" y="-35"/>
      <point x="514" y="-3" type="curve" smooth="yes"/>
      <point x="516" y="29"/>
      <point x="489" y="58"/>
      <point x="457" y="60" type="curve" smooth="yes"/>
      <point x="205" y="73" type="line"/>
      <point x="176" y="310" type="line"/>
      <point x="460" y="340" type="line" smooth="yes"/>
      <point x="493" y="344"/>
      <point x="517" y="374"/>
      <point x="514" y="406" type="curve" smooth="yes"/>
      <point x="510" y="439"/>
      <point x="480" y="463"/>
      <point x="448" y="460" type="curve" smooth="yes"/>
      <point x="414" y="456" type="line"/>
      <point x="414" y="500" type="line" smooth="yes"/>
      <point x="414" y="532"/>
      <point x="386" y="560"/>
      <point x="354" y="560" type="curve" smooth="yes"/>
      <point x="322" y="560"/>
      <point x="294" y="532"/>
      <point x="294" y="500" type="curve" smooth="yes"/>
      <point x="294" y="443" type="line"/>
      <point x="103" y="422" type="line" smooth="yes"/>
      <point x="70" y="419"/>
      <point x="46" y="389"/>
      <point x="50" y="356" type="curve" smooth="yes"/>
      <point x="91" y="8" type="line" smooth="yes"/>
      <point x="95" y="-19"/>
      <point x="120" y="-43"/>
      <point x="148" y="-44" type="curve" smooth="yes"/>
      <point x="294" y="-52" type="line"/>
      <point x="294" y="-100" type="line" smooth="yes"/>
      <point x="294" y="-132"/>
      <point x="322" y="-160"/>
      <point x="354" y="-160" type="curve" smooth="yes"/>
      <point x="386" y="-160"/>
      <point x="414" y="-132"/>
    </contour>
  </outline>
</glyph>
<glyph name="sterling" format="1">
  <advance width="571"/>
  <unicode hex="00A3"/>
  <outline>
    <contour>
      <point x="112" y="-59" type="curve" smooth="yes"/>
      <point x="461" y="-59" type="line" smooth="yes"/>
      <point x="493" y="-59"/>
      <point x="521" y="-31"/>
      <point x="521" y="1" type="curve" smooth="yes"/>
      <point x="521" y="33"/>
      <point x="493" y="61"/>
      <point x="461" y="61" type="curve" smooth="yes"/>
      <point x="207" y="61" type="line"/>
      <point x="315" y="289" type="line" smooth="yes"/>
      <point x="318" y="295"/>
      <point x="321" y="307"/>
      <point x="321" y="314" type="curve" smooth="yes"/>
      <point x="321" y="341" type="line"/>
      <point x="411" y="341" type="line" smooth="yes"/>
      <point x="443" y="341"/>
      <point x="471" y="369"/>
      <point x="471" y="401" type="curve" smooth="yes"/>
      <point x="471" y="433"/>
      <point x="443" y="461"/>
      <point x="411" y="461" type="curve" smooth="yes"/>
      <point x="322" y="461" type="line"/>
      <point x="324" y="621" type="line"/>
      <point x="497" y="753" type="line" smooth="yes"/>
      <point x="523" y="773"/>
      <point x="528" y="812"/>
      <point x="509" y="837" type="curve" smooth="yes"/>
      <point x="489" y="863"/>
      <point x="450" y="868"/>
      <point x="425" y="849" type="curve" smooth="yes"/>
      <point x="228" y="699" type="line" smooth="yes"/>
      <point x="215" y="689"/>
      <point x="204" y="668"/>
      <point x="204" y="652" type="curve" smooth="yes"/>
      <point x="202" y="461" type="line"/>
      <point x="111" y="461" type="line" smooth="yes"/>
      <point x="79" y="461"/>
      <point x="51" y="433"/>
      <point x="51" y="401" type="curve" smooth="yes"/>
      <point x="51" y="369"/>
      <point x="79" y="341"/>
      <point x="111" y="341" type="curve" smooth="yes"/>
      <point x="201" y="341" type="line"/>
      <point x="201" y="328" type="line"/>
      <point x="57" y="27" type="line" smooth="yes"/>
      <point x="37" y="-16"/>
      <point x="64" y="-59"/>
    </contour>
  </outline>
</glyph>
<glyph name="section" format="1">
  <advance width="820"/>
  <unicode hex="00A7"/>
  <outline>
    <contour>
      <point x="476" y="335" type="line"/>
      <point x="435" y="355" type="line"/>
      <point x="344" y="471" type="line"/>
      <point x="385" y="451" type="line"/>
    </contour>
    <contour>
      <point x="426" y="-51" type="curve" smooth="yes"/>
      <point x="733" y="99" type="line" smooth="yes"/>
      <point x="782" y="123"/>
      <point x="782" y="182"/>
      <point x="734" y="207" type="curve" smooth="yes"/>
      <point x="697" y="225" type="line"/>
      <point x="697" y="238"/>
      <point x="693" y="253"/>
      <point x="684" y="264" type="curve" smooth="yes"/>
      <point x="471" y="535" type="line" smooth="yes"/>
      <point x="467" y="541"/>
      <point x="458" y="549"/>
      <point x="451" y="552" type="curve" smooth="yes"/>
      <point x="249" y="653" type="line"/>
      <point x="415" y="734" type="line"/>
      <point x="660" y="571" type="line"/>
      <point x="670" y="554"/>
      <point x="689" y="543"/>
      <point x="710" y="543" type="curve" smooth="yes"/>
      <point x="742" y="543"/>
      <point x="770" y="571"/>
      <point x="770" y="603" type="curve" smooth="yes"/>
      <point x="770" y="610" type="line" smooth="yes"/>
      <point x="770" y="627"/>
      <point x="758" y="650"/>
      <point x="743" y="660" type="curve" smooth="yes"/>
      <point x="453" y="853" type="line" smooth="yes"/>
      <point x="437" y="863"/>
      <point x="411" y="865"/>
      <point x="394" y="857" type="curve" smooth="yes"/>
      <point x="87" y="707" type="line" smooth="yes"/>
      <point x="38" y="683"/>
      <point x="38" y="624"/>
      <point x="86" y="599" type="curve" smooth="yes"/>
      <point x="123" y="581" type="line"/>
      <point x="123" y="568"/>
      <point x="127" y="553"/>
      <point x="136" y="542" type="curve" smooth="yes"/>
      <point x="349" y="271" type="line" smooth="yes"/>
      <point x="353" y="265"/>
      <point x="362" y="257"/>
      <point x="369" y="254" type="curve" smooth="yes"/>
      <point x="571" y="153" type="line"/>
      <point x="405" y="72" type="line"/>
      <point x="160" y="235" type="line"/>
      <point x="150" y="252"/>
      <point x="131" y="263"/>
      <point x="110" y="263" type="curve" smooth="yes"/>
      <point x="78" y="263"/>
      <point x="50" y="235"/>
      <point x="50" y="203" type="curve" smooth="yes"/>
      <point x="50" y="196" type="line" smooth="yes"/>
      <point x="50" y="179"/>
      <point x="62" y="156"/>
      <point x="77" y="146" type="curve" smooth="yes"/>
      <point x="367" y="-47" type="line" smooth="yes"/>
      <point x="383" y="-57"/>
      <point x="409" y="-59"/>
    </contour>
  </outline>
</glyph>
<glyph name="guillemotleft" format="1">
  <advance width="477"/>
  <unicode hex="00AB"/>
  <outline>
    <contour>
      <point x="409" y="-45" type="curve" smooth="yes"/>
      <point x="432" y="-23"/>
      <point x="432" y="17"/>
      <point x="409" y="39" type="curve" smooth="yes"/>
      <point x="374" y="75" type="line"/>
      <point x="426" y="387" type="line" smooth="yes"/>
      <point x="432" y="419"/>
      <point x="409" y="451"/>
      <point x="377" y="456" type="curve" smooth="yes"/>
      <point x="345" y="462"/>
      <point x="313" y="439"/>
      <point x="308" y="407" type="curve" smooth="yes"/>
      <point x="251" y="64" type="line" smooth="yes"/>
      <point x="248" y="47"/>
      <point x="255" y="24"/>
      <point x="267" y="12" type="curve" smooth="yes"/>
      <point x="325" y="-45" type="line" smooth="yes"/>
      <point x="347" y="-68"/>
      <point x="387" y="-68"/>
    </contour>
    <contour>
      <point x="209" y="-45" type="curve" smooth="yes"/>
      <point x="232" y="-23"/>
      <point x="232" y="17"/>
      <point x="209" y="39" type="curve" smooth="yes"/>
      <point x="174" y="75" type="line"/>
      <point x="226" y="387" type="line" smooth="yes"/>
      <point x="232" y="419"/>
      <point x="209" y="451"/>
      <point x="177" y="456" type="curve" smooth="yes"/>
      <point x="145" y="462"/>
      <point x="113" y="439"/>
      <point x="108" y="407" type="curve" smooth="yes"/>
      <point x="51" y="64" type="line" smooth="yes"/>
      <point x="48" y="47"/>
      <point x="55" y="24"/>
      <point x="67" y="12" type="curve" smooth="yes"/>
      <point x="125" y="-45" type="line" smooth="yes"/>
      <point x="147" y="-68"/>
      <point x="187" y="-68"/>
    </contour>
  </outline>
</glyph>
<glyph name="acute" format="1">
  <advance width="519"/>
  <unicode hex="00B4"/>
  <outline>
    <contour>
      <point x="60" y="895" type="curve" smooth="yes"/>
      <point x="78" y="868"/>
      <point x="116" y="860"/>
      <point x="143" y="878" type="curve" smooth="yes"/>
      <point x="427" y="1067" type="line"/>
      <point x="443" y="1078" type="line" smooth="yes"/>
      <point x="470" y="1096"/>
      <point x="478" y="1134"/>
      <point x="460" y="1161" type="curve" smooth="yes"/>
      <point x="442" y="1188"/>
      <point x="404" y="1196"/>
      <point x="377" y="1178" type="curve" smooth="yes"/>
      <point x="360" y="1167" type="line"/>
      <point x="77" y="978" type="line" smooth="yes"/>
      <point x="50" y="960"/>
      <point x="42" y="922"/>
    </contour>
  </outline>
</glyph>
<glyph name="paragraph" format="1">
  <advance width="678"/>
  <unicode hex="00B6"/>
  <outline>
    <contour>
      <point x="568" y="-60" type="curve" smooth="yes"/>
      <point x="600" y="-60"/>
      <point x="628" y="-32"/>
      <point x="628" y="0" type="curve" smooth="yes"/>
      <point x="628" y="480" type="line" smooth="yes"/>
      <point x="628" y="486"/>
      <point x="626" y="495"/>
      <point x="624" y="501" type="curve" smooth="yes"/>
      <point x="504" y="821" type="line" smooth="yes"/>
      <point x="495" y="846"/>
      <point x="466" y="863"/>
      <point x="439" y="859" type="curve" smooth="yes"/>
      <point x="101" y="809" type="line" smooth="yes"/>
      <point x="67" y="804"/>
      <point x="45" y="772"/>
      <point x="51" y="738" type="curve" smooth="yes"/>
      <point x="118" y="398" type="line" smooth="yes"/>
      <point x="129" y="340"/>
      <point x="194" y="327"/>
      <point x="227" y="376" type="curve" smooth="yes"/>
      <point x="308" y="500" type="line"/>
      <point x="308" y="0" type="line" smooth="yes"/>
      <point x="308" y="-32"/>
      <point x="336" y="-60"/>
      <point x="368" y="-60" type="curve" smooth="yes"/>
      <point x="400" y="-60"/>
      <point x="428" y="-32"/>
      <point x="428" y="0" type="curve" smooth="yes"/>
      <point x="428" y="682" type="line"/>
      <point x="508" y="469" type="line"/>
      <point x="508" y="0" type="line" smooth="yes"/>
      <point x="508" y="-32"/>
      <point x="536" y="-60"/>
    </contour>
    <contour>
      <point x="207" y="565" type="line"/>
      <point x="181" y="699" type="line"/>
      <point x="308" y="718" type="line"/>
    </contour>
  </outline>
</glyph>
<glyph name="guillemotright" format="1">
  <advance width="477"/>
  <unicode hex="00BB"/>
  <outline>
    <contour>
      <point x="152" y="-41" type="curve" smooth="yes"/>
      <point x="210" y="16" type="line" smooth="yes"/>
      <point x="222" y="28"/>
      <point x="229" y="51"/>
      <point x="226" y="68" type="curve" smooth="yes"/>
      <point x="169" y="411" type="line" smooth="yes"/>
      <point x="164" y="443"/>
      <point x="132" y="466"/>
      <point x="100" y="460" type="curve" smooth="yes"/>
      <point x="68" y="455"/>
      <point x="45" y="423"/>
      <point x="51" y="391" type="curve" smooth="yes"/>
      <point x="103" y="79" type="line"/>
      <point x="68" y="43" type="line" smooth="yes"/>
      <point x="45" y="21"/>
      <point x="45" y="-19"/>
      <point x="68" y="-41" type="curve" smooth="yes"/>
      <point x="90" y="-64"/>
      <point x="130" y="-64"/>
    </contour>
    <contour>
      <point x="352" y="-41" type="curve" smooth="yes"/>
      <point x="410" y="16" type="line" smooth="yes"/>
      <point x="422" y="28"/>
      <point x="429" y="51"/>
      <point x="426" y="68" type="curve" smooth="yes"/>
      <point x="369" y="411" type="line" smooth="yes"/>
      <point x="364" y="443"/>
      <point x="332" y="466"/>
      <point x="300" y="460" type="curve" smooth="yes"/>
      <point x="268" y="455"/>
      <point x="245" y="423"/>
      <point x="251" y="391" type="curve" smooth="yes"/>
      <point x="303" y="79" type="line"/>
      <point x="268" y="43" type="line" smooth="yes"/>
      <point x="245" y="21"/>
      <point x="245" y="-19"/>
      <point x="268" y="-41" type="curve" smooth="yes"/>
      <point x="290" y="-64"/>
      <point x="330" y="-64"/>
    </contour>
  </outline>
</glyph>
<glyph name="Acircumflex" format="1">
  <advance width="820"/>
  <unicode hex="00C2"/>
  <outline>
    <contour>
      <point x="760" y="895" type="curve" smooth="yes"/>
      <point x="778" y="922"/>
      <point x="770" y="960"/>
      <point x="743" y="978" type="curve" smooth="yes"/>
      <point x="724" y="991" type="line"/>
      <point x="424" y="1169" type="line" smooth="yes"/>
      <point x="406" y="1179"/>
      <point x="377" y="1178"/>
      <point x="360" y="1167" type="curve" smooth="yes"/>
      <point x="77" y="978" type="line" smooth="yes"/>
      <point x="50" y="960"/>
      <point x="42" y="922"/>
      <point x="60" y="895" type="curve" smooth="yes"/>
      <point x="78" y="868"/>
      <point x="116" y="860"/>
      <point x="143" y="878" type="curve" smooth="yes"/>
      <point x="395" y="1046" type="line"/>
      <point x="663" y="887" type="line"/>
      <point x="677" y="878" type="line" smooth="yes"/>
      <point x="704" y="860"/>
      <point x="742" y="868"/>
    </contour>
    <contour>
      <point x="710" y="-64" type="curve" smooth="yes"/>
      <point x="742" y="-64"/>
      <point x="770" y="-36"/>
      <point x="770" y="-4" type="curve" smooth="yes"/>
      <point x="770" y="499" type="line" smooth="yes"/>
      <point x="770" y="509"/>
      <point x="766" y="523"/>
      <point x="761" y="531" type="curve" smooth="yes"/>
      <point x="580" y="827" type="line" smooth="yes"/>
      <point x="570" y="844"/>
      <point x="545" y="857"/>
      <point x="525" y="856" type="curve" smooth="yes"/>
      <point x="190" y="836" type="line" smooth="yes"/>
      <point x="166" y="835"/>
      <point x="142" y="814"/>
      <point x="136" y="791" type="curve" smooth="yes"/>
      <point x="52" y="453" type="line" smooth="yes"/>
      <point x="51" y="449"/>
      <point x="50" y="442"/>
      <point x="50" y="438" type="curve" smooth="yes"/>
      <point x="55" y="98" type="line" smooth="yes"/>
      <point x="55" y="40"/>
      <point x="116" y="15"/>
      <point x="157" y="56" type="curve" smooth="yes"/>
      <point x="385" y="286" type="line"/>
      <point x="650" y="286" type="line"/>
      <point x="650" y="-4" type="line" smooth="yes"/>
      <point x="650" y="-36"/>
      <point x="678" y="-64"/>
    </contour>
    <contour>
      <point x="317" y="388" type="curve" smooth="yes"/>
      <point x="173" y="242" type="line"/>
      <point x="170" y="432" type="line"/>
      <point x="241" y="719" type="line"/>
      <point x="496" y="734" type="line"/>
      <point x="650" y="483" type="line"/>
      <point x="650" y="406" type="line"/>
      <point x="360" y="406" type="line" smooth="yes"/>
      <point x="346" y="406"/>
      <point x="327" y="398"/>
    </contour>
  </outline>
</glyph>
<glyph name="Oacute" format="1">
  <advance width="821"/>
  <unicode hex="00D3"/>
  <outline>
    <contour>
      <point x="360" y="895" type="curve" smooth="yes"/>
      <point x="378" y="868"/>
      <point x="416" y="860"/>
      <point x="443" y="878" type="curve" smooth="yes"/>
      <point x="727" y="1067" type="line"/>
      <point x="743" y="1078" type="line" smooth="yes"/>
      <point x="770" y="1096"/>
      <point x="778" y="1134"/>
      <point x="760" y="1161" type="curve" smooth="yes"/>
      <point x="742" y="1188"/>
      <point x="704" y="1196"/>
      <point x="677" y="1178" type="curve" smooth="yes"/>
      <point x="660" y="1167" type="line"/>
      <point x="377" y="978" type="line" smooth="yes"/>
      <point x="350" y="960"/>
      <point x="342" y="922"/>
    </contour>
    <contour>
      <point x="483" y="59" type="line"/>
      <point x="343" y="59" type="line"/>
      <point x="170" y="298" type="line"/>
      <point x="170" y="586" type="line"/>
      <point x="409" y="729" type="line"/>
      <point x="651" y="592" type="line"/>
      <point x="651" y="298" type="line"/>
    </contour>
    <contour>
      <point x="504" y="-61" type="line" smooth="yes"/>
      <point x="506" y="-61"/>
      <point x="508" y="-61"/>
      <point x="511" y="-61" type="curve"/>
      <point x="531" y="-62"/>
      <point x="551" y="-53"/>
      <point x="563" y="-36" type="curve" smooth="yes"/>
      <point x="760" y="244" type="line" smooth="yes"/>
      <point x="766" y="253"/>
      <point x="771" y="269"/>
      <point x="771" y="279" type="curve" smooth="yes"/>
      <point x="771" y="627" type="line" smooth="yes"/>
      <point x="771" y="646"/>
      <point x="757" y="670"/>
      <point x="740" y="679" type="curve" smooth="yes"/>
      <point x="438" y="851" type="line" smooth="yes"/>
      <point x="421" y="861"/>
      <point x="394" y="860"/>
      <point x="378" y="850" type="curve" smooth="yes"/>
      <point x="79" y="671" type="line" smooth="yes"/>
      <point x="63" y="661"/>
      <point x="50" y="638"/>
      <point x="50" y="619" type="curve" smooth="yes"/>
      <point x="50" y="279" type="line" smooth="yes"/>
      <point x="50" y="268"/>
      <point x="55" y="253"/>
      <point x="61" y="244" type="curve" smooth="yes"/>
      <point x="263" y="-36" type="line" smooth="yes"/>
      <point x="273" y="-50"/>
      <point x="295" y="-61"/>
      <point x="312" y="-61" type="curve" smooth="yes"/>
    </contour>
  </outline>
</glyph>
<glyph name="Ocircumflex" format="1">
  <advance width="821"/>
  <unicode hex="00D4"/>
  <outline>
    <contour>
      <point x="760" y="895" type="curve" smooth="yes"/>
      <point x="778" y="922"/>
      <point x="770" y="960"/>
      <point x="743" y="978" type="curve" smooth="yes"/>
      <point x="724" y="991" type="line"/>
      <point x="424" y="1169" type="line" smooth="yes"/>
      <point x="406" y="1179"/>
      <point x="377" y="1178"/>
      <point x="360" y="1167" type="curve" smooth="yes"/>
      <point x="77" y="978" type="line" smooth="yes"/>
      <point x="50" y="960"/>
      <point x="42" y="922"/>
      <point x="60" y="895" type="curve" smooth="yes"/>
      <point x="78" y="868"/>
      <point x="116" y="860"/>
      <point x="143" y="878" type="curve" smooth="yes"/>
      <point x="395" y="1046" type="line"/>
      <point x="663" y="887" type="line"/>
      <point x="677" y="878" type="line" smooth="yes"/>
      <point x="704" y="860"/>
      <point x="742" y="868"/>
    </contour>
    <contour>
      <point x="483" y="59" type="line"/>
      <point x="343" y="59" type="line"/>
      <point x="170" y="298" type="line"/>
      <point x="170" y="586" type="line"/>
      <point x="409" y="729" type="line"/>
      <point x="651" y="592" type="line"/>
      <point x="651" y="298" type="line"/>
    </contour>
    <contour>
      <point x="504" y="-61" type="line" smooth="yes"/>
      <point x="506" y="-61"/>
      <point x="508" y="-61"/>
      <point x="511" y="-61" type="curve"/>
      <point x="531" y="-62"/>
      <point x="551" y="-53"/>
      <point x="563" y="-36" type="curve" smooth="yes"/>
      <point x="760" y="244" type="line" smooth="yes"/>
      <point x="766" y="253"/>
      <point x="771" y="269"/>
      <point x="771" y="279" type="curve" smooth="yes"/>
      <point x="771" y="627" type="line" smooth="yes"/>
      <point x="771" y="646"/>
      <point x="757" y="670"/>
      <point x="740" y="679" type="curve" smooth="yes"/>
      <point x="438" y="851" type="line" smooth="yes"/>
      <point x="421" y="861"/>
      <point x="394" y="860"/>
      <point x="378" y="850" type="curve" smooth="yes"/>
      <point x="79" y="671" type="line" smooth="yes"/>
      <point x="63" y="661"/>
      <point x="50" y="638"/>
      <point x="50" y="619" type="curve" smooth="yes"/>
      <point x="50" y="279" type="line" smooth="yes"/>
      <point x="50" y="268"/>
      <point x="55" y="253"/>
      <point x="61" y="244" type="curve" smooth="yes"/>
      <point x="263" y="-36" type="line" smooth="yes"/>
      <point x="273" y="-50"/>
      <point x="295" y="-61"/>
      <point x="312" y="-61" type="curve" smooth="yes"/>
    </contour>
  </outline>
</glyph>
<glyph name="Otilde" format="1">
  <advance width="821"/>
  <unicode hex="00D5"/>
  <outline>
    <contour>
      <point x="145" y="879" type="curve" smooth="yes"/>
      <point x="409" y="1068" type="line"/>
      <point x="710" y="1068" type="line" smooth="yes"/>
      <point x="742" y="1068"/>
      <point x="770" y="1096"/>
      <point x="770" y="1128" type="curve" smooth="yes"/>
      <point x="770" y="1160"/>
      <point x="742" y="1188"/>
      <point x="710" y="1188" type="curve" smooth="yes"/>
      <point x="390" y="1188" type="line" smooth="yes"/>
      <point x="379" y="1188"/>
      <point x="364" y="1183"/>
      <point x="355" y="1177" type="curve" smooth="yes"/>
      <point x="75" y="977" type="line" smooth="yes"/>
      <point x="49" y="958"/>
      <point x="42" y="919"/>
      <point x="61" y="893" type="curve" smooth="yes"/>
      <point x="80" y="867"/>
      <point x="119" y="860"/>
    </contour>
    <contour>
      <point x="483" y="59" type="line"/>
      <point x="343" y="59" type="line"/>
      <point x="170" y="298" type="line"/>
      <point x="170" y="586" type="line"/>
      <point x="409" y="729" type="line"/>
      <point x="651" y="592" type="line"/>
      <point x="651" y="298" type="line"/>
    </contour>
    <contour>
      <point x="504" y="-61" type="line" smooth="yes"/>
      <point x="506" y="-61"/>
      <point x="508" y="-61"/>
      <point x="511" y="-61" type="curve"/>
      <point x="531" y="-62"/>
      <point x="551" y="-53"/>
      <point x="563" y="-36" type="curve" smooth="yes"/>
      <point x="760" y="244" type="line" smooth="yes"/>
      <point x="766" y="253"/>
      <point x="771" y="269"/>
      <point x="771" y="279" type="curve" smooth="yes"/>
      <point x="771" y="627" type="line" smooth="yes"/>
      <point x="771" y="646"/>
      <point x="757" y="670"/>
      <point x="740" y="679" type="curve" smooth="yes"/>
      <point x="438" y="851" type="line" smooth="yes"/>
      <point x="421" y="861"/>
      <point x="394" y="860"/>
      <point x="378" y="850" type="curve" smooth="yes"/>
      <point x="79" y="671" type="line" smooth="yes"/>
      <point x="63" y="661"/>
      <point x="50" y="638"/>
      <point x="50" y="619" type="curve" smooth="yes"/>
      <point x="50" y="279" type="line" smooth="yes"/>
      <point x="50" y="268"/>
      <point x="55" y="253"/>
      <point x="61" y="244" type="curve" smooth="yes"/>
      <point x="263" y="-36" type="line" smooth="yes"/>
      <point x="273" y="-50"/>
      <point x="295" y="-61"/>
      <point x="312" y="-61" type="curve" smooth="yes"/>
    </contour>
  </outline>
</glyph>
<glyph name="ccedilla" format="1">
  <advance width="820"/>
  <unicode hex="00E7"/>
  <outline>
    <contour>
      <point x="656" y="-22" type="line" smooth="yes"/>
      <point x="679" y="-21"/>
      <point x="704" y="-3"/>
      <point x="711" y="19" type="curve" smooth="yes"/>
      <point x="767" y="182" type="line" smooth="yes"/>
      <point x="777" y="212"/>
      <point x="760" y="247"/>
      <point x="729" y="258" type="curve" smooth="yes"/>
      <point x="699" y="268"/>
      <point x="664" y="251"/>
      <point x="653" y="220" type="curve" smooth="yes"/>
      <point x="611" y="97" type="line"/>
      <point x="340" y="90" type="line"/>
      <point x="170" y="331" type="line"/>
      <point x="171" y="617" type="line"/>
      <point x="422" y="732" type="line"/>
      <point x="675" y="552" type="line" smooth="yes"/>
      <point x="702" y="533"/>
      <point x="740" y="540"/>
      <point x="759" y="566" type="curve" smooth="yes"/>
      <point x="778" y="593"/>
      <point x="771" y="631"/>
      <point x="745" y="650" type="curve" smooth="yes"/>
      <point x="463" y="850" type="line" smooth="yes"/>
      <point x="447" y="861"/>
      <point x="420" y="864"/>
      <point x="403" y="856" type="curve" smooth="yes"/>
      <point x="86" y="710" type="line" smooth="yes"/>
      <point x="67" y="701"/>
      <point x="51" y="677"/>
      <point x="51" y="656" type="curve" smooth="yes"/>
      <point x="50" y="312" type="line" smooth="yes"/>
      <point x="50" y="302"/>
      <point x="55" y="286"/>
      <point x="61" y="278" type="curve" smooth="yes"/>
      <point x="261" y="-6" type="line" smooth="yes"/>
      <point x="271" y="-20"/>
      <point x="294" y="-31"/>
      <point x="311" y="-31" type="curve" smooth="yes"/>
    </contour>
  </outline>
</glyph>
<glyph name="egrave" format="1">
  <advance width="824"/>
  <unicode hex="00E8"/>
  <outline>
    <contour>
      <point x="460" y="895" type="curve" smooth="yes"/>
      <point x="478" y="922"/>
      <point x="470" y="960"/>
      <point x="443" y="978" type="curve" smooth="yes"/>
      <point x="160" y="1167" type="line"/>
      <point x="143" y="1178" type="line" smooth="yes"/>
      <point x="116" y="1196"/>
      <point x="78" y="1188"/>
      <point x="60" y="1161" type="curve" smooth="yes"/>
      <point x="42" y="1134"/>
      <point x="50" y="1096"/>
      <point x="77" y="1078" type="curve" smooth="yes"/>
      <point x="93" y="1067" type="line"/>
      <point x="377" y="878" type="line" smooth="yes"/>
      <point x="404" y="860"/>
      <point x="442" y="868"/>
    </contour>
    <contour>
      <point x="515" y="-60" type="line" smooth="yes"/>
      <point x="518" y="-60"/>
      <point x="522" y="-60"/>
      <point x="525" y="-59" type="curve"/>
      <point x="538" y="-57"/>
      <point x="550" y="-52"/>
      <point x="559" y="-43" type="curve" smooth="yes"/>
      <point x="757" y="153" type="line" smooth="yes"/>
      <point x="780" y="176"/>
      <point x="780" y="215"/>
      <point x="758" y="238" type="curve" smooth="yes"/>
      <point x="735" y="261"/>
      <point x="696" y="261"/>
      <point x="673" y="239" type="curve" smooth="yes"/>
      <point x="492" y="60" type="line"/>
      <point x="448" y="60" type="line"/>
      <point x="219" y="157" type="line"/>
      <point x="390" y="363" type="line" smooth="yes"/>
      <point x="408" y="385"/>
      <point x="407" y="420"/>
      <point x="388" y="441" type="curve" smooth="yes"/>
      <point x="216" y="636" type="line"/>
      <point x="426" y="731" type="line"/>
      <point x="679" y="553" type="line" smooth="yes"/>
      <point x="706" y="534"/>
      <point x="744" y="541"/>
      <point x="763" y="567" type="curve" smooth="yes"/>
      <point x="782" y="594"/>
      <point x="775" y="632"/>
      <point x="749" y="651" type="curve" smooth="yes"/>
      <point x="467" y="849" type="line" smooth="yes"/>
      <point x="451" y="860"/>
      <point x="425" y="862"/>
      <point x="408" y="855" type="curve" smooth="yes"/>
      <point x="92" y="712" type="line" smooth="yes"/>
      <point x="53" y="694"/>
      <point x="44" y="649"/>
      <point x="72" y="617" type="curve" smooth="yes"/>
      <point x="265" y="400" type="line"/>
      <point x="75" y="171" type="line" smooth="yes"/>
      <point x="48" y="138"/>
      <point x="59" y="94"/>
      <point x="98" y="78" type="curve" smooth="yes"/>
      <point x="413" y="-55" type="line" smooth="yes"/>
      <point x="419" y="-58"/>
      <point x="429" y="-60"/>
      <point x="436" y="-60" type="curve" smooth="yes"/>
    </contour>
  </outline>
</glyph>
<glyph name="eacute" format="1">
  <advance width="819"/>
  <unicode hex="00E9"/>
  <outline>
    <contour>
      <point x="354" y="895" type="curve" smooth="yes"/>
      <point x="372" y="868"/>
      <point x="410" y="860"/>
      <point x="437" y="878" type="curve" smooth="yes"/>
      <point x="721" y="1067" type="line"/>
      <point x="737" y="1078" type="line" smooth="yes"/>
      <point x="764" y="1096"/>
      <point x="772" y="1134"/>
      <point x="754" y="1161" type="curve" smooth="yes"/>
      <point x="736" y="1188"/>
      <point x="698" y="1196"/>
      <point x="671" y="1178" type="curve" smooth="yes"/>
      <point x="654" y="1167" type="line"/>
      <point x="371" y="978" type="line" smooth="yes"/>
      <point x="344" y="960"/>
      <point x="336" y="922"/>
    </contour>
    <contour>
      <point x="509" y="-60" type="line" smooth="yes"/>
      <point x="512" y="-60"/>
      <point x="516" y="-60"/>
      <point x="519" y="-59" type="curve"/>
      <point x="532" y="-57"/>
      <point x="544" y="-52"/>
      <point x="553" y="-43" type="curve" smooth="yes"/>
      <point x="751" y="153" type="line" smooth="yes"/>
      <point x="774" y="176"/>
      <point x="774" y="215"/>
      <point x="752" y="238" type="curve" smooth="yes"/>
      <point x="729" y="261"/>
      <point x="690" y="261"/>
      <point x="667" y="239" type="curve" smooth="yes"/>
      <point x="486" y="60" type="line"/>
      <point x="442" y="60" type="line"/>
      <point x="213" y="157" type="line"/>
      <point x="384" y="363" type="line" smooth="yes"/>
      <point x="402" y="385"/>
      <point x="401" y="420"/>
      <point x="382" y="441" type="curve" smooth="yes"/>
      <point x="210" y="636" type="line"/>
      <point x="420" y="731" type="line"/>
      <point x="673" y="553" type="line" smooth="yes"/>
      <point x="700" y="534"/>
      <point x="738" y="541"/>
      <point x="757" y="567" type="curve" smooth="yes"/>
      <point x="776" y="594"/>
      <point x="769" y="632"/>
      <point x="743" y="651" type="curve" smooth="yes"/>
      <point x="461" y="849" type="line" smooth="yes"/>
      <point x="445" y="860"/>
      <point x="419" y="862"/>
      <point x="402" y="855" type="curve" smooth="yes"/>
      <point x="86" y="712" type="line" smooth="yes"/>
      <point x="47" y="694"/>
      <point x="38" y="649"/>
      <point x="66" y="617" type="curve" smooth="yes"/>
      <point x="259" y="400" type="line"/>
      <point x="69" y="171" type="line" smooth="yes"/>
      <point x="42" y="138"/>
      <point x="53" y="94"/>
      <point x="92" y="78" type="curve" smooth="yes"/>
      <point x="407" y="-55" type="line" smooth="yes"/>
      <point x="413" y="-58"/>
      <point x="423" y="-60"/>
      <point x="430" y="-60" type="curve" smooth="yes"/>
    </contour>
  </outline>
</glyph>
<glyph name="igrave" format="1">
  <advance width="820"/>
  <unicode hex="00EC"/>
  <outline>
    <contour>
      <point x="464" y="895" type="curve" smooth="yes"/>
      <point x="482" y="922"/>
      <point x="474" y="960"/>
      <point x="447" y="978" type="curve" smooth="yes"/>
      <point x="164" y="1167" type="line"/>
      <point x="147" y="1178" type="line" smooth="yes"/>
      <point x="120" y="1196"/>
      <point x="82" y="1188"/>
      <point x="64" y="1161" type="curve" smooth="yes"/>
      <point x="46" y="1134"/>
      <point x="54" y="1096"/>
      <point x="81" y="1078" type="curve" smooth="yes"/>
      <point x="97" y="1067" type="line"/>
      <point x="381" y="878" type="line" smooth="yes"/>
      <point x="408" y="860"/>
      <point x="446" y="868"/>
    </contour>
    <contour>
      <point x="110" y="-61" type="curve" smooth="yes"/>
      <point x="460" y="-61" type="line" smooth="yes"/>
      <point x="498" y="-61"/>
      <point x="525" y="-30"/>
      <point x="519" y="8" type="curve" smooth="yes"/>
      <point x="470" y="344" type="line"/>
      <point x="462" y="639" type="line"/>
      <point x="732" y="743" type="line" smooth="yes"/>
      <point x="762" y="755"/>
      <point x="778" y="790"/>
      <point x="766" y="821" type="curve" smooth="yes"/>
      <point x="754" y="851"/>
      <point x="719" y="867"/>
      <point x="688" y="855" type="curve" smooth="yes"/>
      <point x="380" y="736" type="line" smooth="yes"/>
      <point x="358" y="728"/>
      <point x="341" y="702"/>
      <point x="341" y="678" type="curve" smooth="yes"/>
      <point x="350" y="337" type="line" smooth="yes"/>
      <point x="350" y="335"/>
      <point x="350" y="332"/>
      <point x="351" y="330" type="curve" smooth="yes"/>
      <point x="391" y="59" type="line"/>
      <point x="110" y="59" type="line" smooth="yes"/>
      <point x="78" y="59"/>
      <point x="50" y="31"/>
      <point x="50" y="-1" type="curve" smooth="yes"/>
      <point x="50" y="-33"/>
      <point x="78" y="-61"/>
    </contour>
  </outline>
</glyph>
<glyph name="iacute" format="1">
  <advance width="824"/>
  <unicode hex="00ED"/>
  <outline>
    <contour>
      <point x="364" y="895" type="curve" smooth="yes"/>
      <point x="382" y="868"/>
      <point x="420" y="860"/>
      <point x="447" y="878" type="curve" smooth="yes"/>
      <point x="731" y="1067" type="line"/>
      <point x="747" y="1078" type="line" smooth="yes"/>
      <point x="774" y="1096"/>
      <point x="782" y="1134"/>
      <point x="764" y="1161" type="curve" smooth="yes"/>
      <point x="746" y="1188"/>
      <point x="708" y="1196"/>
      <point x="681" y="1178" type="curve" smooth="yes"/>
      <point x="664" y="1167" type="line"/>
      <point x="381" y="978" type="line" smooth="yes"/>
      <point x="354" y="960"/>
      <point x="346" y="922"/>
    </contour>
    <contour>
      <point x="110" y="-61" type="curve" smooth="yes"/>
      <point x="460" y="-61" type="line" smooth="yes"/>
      <point x="498" y="-61"/>
      <point x="525" y="-30"/>
      <point x="519" y="8" type="curve" smooth="yes"/>
      <point x="470" y="344" type="line"/>
      <point x="462" y="639" type="line"/>
      <point x="732" y="743" type="line" smooth="yes"/>
      <point x="762" y="755"/>
      <point x="778" y="790"/>
      <point x="766" y="821" type="curve" smooth="yes"/>
      <point x="754" y="851"/>
      <point x="719" y="867"/>
      <point x="688" y="855" type="curve" smooth="yes"/>
      <point x="380" y="736" type="line" smooth="yes"/>
      <point x="358" y="728"/>
      <point x="341" y="702"/>
      <point x="341" y="678" type="curve" smooth="yes"/>
      <point x="350" y="337" type="line" smooth="yes"/>
      <point x="350" y="335"/>
      <point x="350" y="332"/>
      <point x="351" y="330" type="curve" smooth="yes"/>
      <point x="391" y="59" type="line"/>
      <point x="110" y="59" type="line" smooth="yes"/>
      <point x="78" y="59"/>
      <point x="50" y="31"/>
      <point x="50" y="-1" type="curve" smooth="yes"/>
      <point x="50" y="-33"/>
      <point x="78" y="-61"/>
    </contour>
  </outline>
</glyph>
<glyph name="icircumflex" format="1">
  <advance width="824"/>
  <unicode hex="00EE"/>
  <outline>
    <contour>
      <point x="764" y="895" type="curve" smooth="yes"/>
      <point x="782" y="922"/>
      <point x="774" y="960"/>
      <point x="747" y="978" type="curve" smooth="yes"/>
      <point x="728" y="991" type="line"/>
      <point x="428" y="1169" type="line" smooth="yes"/>
      <point x="410" y="1179"/>
      <point x="381" y="1178"/>
      <point x="364" y="1167" type="curve" smooth="yes"/>
      <point x="81" y="978" type="line" smooth="yes"/>
      <point x="54" y="960"/>
      <point x="46" y="922"/>
      <point x="64" y="895" type="curve" smooth="yes"/>
      <point x="82" y="868"/>
      <point x="120" y="860"/>
      <point x="147" y="878" type="curve" smooth="yes"/>
      <point x="399" y="1046" type="line"/>
      <point x="667" y="887" type="line"/>
      <point x="681" y="878" type="line" smooth="yes"/>
      <point x="708" y="860"/>
      <point x="746" y="868"/>
    </contour>
    <contour>
      <point x="110" y="-61" type="curve" smooth="yes"/>
      <point x="460" y="-61" type="line" smooth="yes"/>
      <point x="498" y="-61"/>
      <point x="525" y="-30"/>
      <point x="519" y="8" type="curve" smooth="yes"/>
      <point x="470" y="344" type="line"/>
      <point x="462" y="639" type="line"/>
      <point x="732" y="743" type="line" smooth="yes"/>
      <point x="762" y="755"/>
      <point x="778" y="790"/>
      <point x="766" y="821" type="curve" smooth="yes"/>
      <point x="754" y="851"/>
      <point x="719" y="867"/>
      <point x="688" y="855" type="curve" smooth="yes"/>
      <point x="380" y="736" type="line" smooth="yes"/>
      <point x="358" y="728"/>
      <point x="341" y="702"/>
      <point x="341" y="678" type="curve" smooth="yes"/>
      <point x="350" y="337" type="line" smooth="yes"/>
      <point x="350" y="335"/>
      <point x="350" y="332"/>
      <point x="351" y="330" type="curve" smooth="yes"/>
      <point x="391" y="59" type="line"/>
      <point x="110" y="59" type="line" smooth="yes"/>
      <point x="78" y="59"/>
      <point x="50" y="31"/>
      <point x="50" y="-1" type="curve" smooth="yes"/>
      <point x="50" y="-33"/>
      <point x="78" y="-61"/>
    </contour>
  </outline>
</glyph>
<glyph name="ntilde" format="1">
  <advance width="824"/>
  <unicode hex="00F1"/>
  <outline>
    <contour>
      <point x="149" y="879" type="curve" smooth="yes"/>
      <point x="413" y="1068" type="line"/>
      <point x="714" y="1068" type="line" smooth="yes"/>
      <point x="746" y="1068"/>
      <point x="774" y="1096"/>
      <point x="774" y="1128" type="curve" smooth="yes"/>
      <point x="774" y="1160"/>
      <point x="746" y="1188"/>
      <point x="714" y="1188" type="curve" smooth="yes"/>
      <point x="394" y="1188" type="line" smooth="yes"/>
      <point x="383" y="1188"/>
      <point x="368" y="1183"/>
      <point x="359" y="1177" type="curve" smooth="yes"/>
      <point x="79" y="977" type="line" smooth="yes"/>
      <point x="53" y="958"/>
      <point x="46" y="919"/>
      <point x="65" y="893" type="curve" smooth="yes"/>
      <point x="84" y="867"/>
      <point x="123" y="860"/>
    </contour>
    <contour>
      <point x="170" y="-1" type="curve" smooth="yes"/>
      <point x="170" y="109" type="line"/>
      <point x="170" y="457" type="line"/>
      <point x="177" y="692" type="line"/>
      <point x="350" y="584" type="line"/>
      <point x="350" y="279" type="line" smooth="yes"/>
      <point x="350" y="260"/>
      <point x="363" y="237"/>
      <point x="379" y="228" type="curve" smooth="yes"/>
      <point x="679" y="48" type="line" smooth="yes"/>
      <point x="723" y="21"/>
      <point x="770" y="48"/>
      <point x="770" y="99" type="curve" smooth="yes"/>
      <point x="770" y="799" type="line" smooth="yes"/>
      <point x="770" y="831"/>
      <point x="742" y="859"/>
      <point x="710" y="859" type="curve" smooth="yes"/>
      <point x="678" y="859"/>
      <point x="650" y="831"/>
      <point x="650" y="799" type="curve" smooth="yes"/>
      <point x="650" y="205" type="line"/>
      <point x="470" y="313" type="line"/>
      <point x="470" y="617" type="line" smooth="yes"/>
      <point x="470" y="635"/>
      <point x="457" y="658"/>
      <point x="442" y="668" type="curve" smooth="yes"/>
      <point x="152" y="850" type="line" smooth="yes"/>
      <point x="109" y="877"/>
      <point x="62" y="851"/>
      <point x="60" y="801" type="curve" smooth="yes"/>
      <point x="50" y="461" type="line"/>
      <point x="50" y="109" type="line"/>
      <point x="50" y="-1" type="line" smooth="yes"/>
      <point x="50" y="-33"/>
      <point x="78" y="-61"/>
      <point x="110" y="-61" type="curve" smooth="yes"/>
      <point x="142" y="-61"/>
      <point x="170" y="-33"/>
    </contour>
  </outline>
</glyph>
<glyph name="oslash" format="1">
  <advance width="819"/>
  <unicode hex="00F8"/>
  <outline>
    <contour>
      <point x="252" y="291" type="line"/>
      <point x="177" y="375" type="line"/>
      <point x="259" y="630" type="line"/>
      <point x="509" y="635" type="line"/>
    </contour>
    <contour>
      <point x="473" y="161" type="line"/>
      <point x="368" y="161" type="line"/>
      <point x="333" y="200" type="line"/>
      <point x="575" y="522" type="line"/>
      <point x="633" y="388" type="line"/>
    </contour>
    <contour>
      <point x="157" y="-35" type="curve" smooth="yes"/>
      <point x="260" y="102" type="line"/>
      <point x="297" y="61" type="line" smooth="yes"/>
      <point x="307" y="50"/>
      <point x="327" y="41"/>
      <point x="341" y="41" type="curve" smooth="yes"/>
      <point x="494" y="41" type="line" smooth="yes"/>
      <point x="496" y="41"/>
      <point x="498" y="41"/>
      <point x="501" y="41" type="curve"/>
      <point x="521" y="40"/>
      <point x="541" y="49"/>
      <point x="553" y="66" type="curve" smooth="yes"/>
      <point x="751" y="346" type="line" smooth="yes"/>
      <point x="762" y="362"/>
      <point x="764" y="388"/>
      <point x="757" y="405" type="curve" smooth="yes"/>
      <point x="657" y="632" type="line"/>
      <point x="757" y="765" type="line" smooth="yes"/>
      <point x="776" y="791"/>
      <point x="771" y="830"/>
      <point x="745" y="849" type="curve" smooth="yes"/>
      <point x="719" y="868"/>
      <point x="680" y="863"/>
      <point x="661" y="837" type="curve" smooth="yes"/>
      <point x="594" y="747" type="line"/>
      <point x="584" y="753"/>
      <point x="573" y="756"/>
      <point x="563" y="756" type="curve" smooth="yes"/>
      <point x="215" y="749" type="line" smooth="yes"/>
      <point x="191" y="749"/>
      <point x="166" y="730"/>
      <point x="159" y="708" type="curve" smooth="yes"/>
      <point x="52" y="380" type="line" smooth="yes"/>
      <point x="46" y="361"/>
      <point x="52" y="335"/>
      <point x="64" y="321" type="curve" smooth="yes"/>
      <point x="178" y="193" type="line"/>
      <point x="61" y="37" type="line" smooth="yes"/>
      <point x="42" y="11"/>
      <point x="47" y="-28"/>
      <point x="73" y="-47" type="curve" smooth="yes"/>
      <point x="99" y="-66"/>
      <point x="138" y="-61"/>
    </contour>
  </outline>
</glyph>
<glyph name="ugrave" format="1">
  <advance width="819"/>
  <unicode hex="00F9"/>
  <outline>
    <contour>
      <point x="461" y="895" type="curve" smooth="yes"/>
      <point x="479" y="922"/>
      <point x="471" y="960"/>
      <point x="444" y="978" type="curve" smooth="yes"/>
      <point x="161" y="1167" type="line"/>
      <point x="144" y="1178" type="line" smooth="yes"/>
      <point x="117" y="1196"/>
      <point x="79" y="1188"/>
      <point x="61" y="1161" type="curve" smooth="yes"/>
      <point x="43" y="1134"/>
      <point x="51" y="1096"/>
      <point x="78" y="1078" type="curve" smooth="yes"/>
      <point x="94" y="1067" type="line"/>
      <point x="378" y="878" type="line" smooth="yes"/>
      <point x="405" y="860"/>
      <point x="443" y="868"/>
    </contour>
    <contour>
      <point x="389" y="-58" type="curve" smooth="yes"/>
      <point x="716" y="42" type="line" smooth="yes"/>
      <point x="739" y="49"/>
      <point x="758" y="74"/>
      <point x="758" y="98" type="curve" smooth="yes"/>
      <point x="769" y="449" type="line"/>
      <point x="769" y="799" type="line" smooth="yes"/>
      <point x="769" y="831"/>
      <point x="741" y="859"/>
      <point x="709" y="859" type="curve" smooth="yes"/>
      <point x="677" y="859"/>
      <point x="649" y="831"/>
      <point x="649" y="799" type="curve" smooth="yes"/>
      <point x="649" y="449" type="line"/>
      <point x="640" y="144" type="line"/>
      <point x="386" y="66" type="line"/>
      <point x="170" y="256" type="line"/>
      <point x="170" y="799" type="line" smooth="yes"/>
      <point x="170" y="831"/>
      <point x="142" y="859"/>
      <point x="110" y="859" type="curve" smooth="yes"/>
      <point x="78" y="859"/>
      <point x="50" y="831"/>
      <point x="50" y="799" type="curve" smooth="yes"/>
      <point x="50" y="229" type="line" smooth="yes"/>
      <point x="50" y="214"/>
      <point x="59" y="194"/>
      <point x="70" y="184" type="curve" smooth="yes"/>
      <point x="332" y="-46" type="line" smooth="yes"/>
      <point x="346" y="-58"/>
      <point x="372" y="-64"/>
    </contour>
  </outline>
</glyph>
<glyph name="uacute" format="1">
  <advance width="821"/>
  <unicode hex="00FA"/>
  <outline>
    <contour>
      <point x="361" y="895" type="curve" smooth="yes"/>
      <point x="379" y="868"/>
      <point x="417" y="860"/>
      <point x="444" y="878" type="curve" smooth="yes"/>
      <point x="728" y="1067" type="line"/>
      <point x="744" y="1078" type="line" smooth="yes"/>
      <point x="771" y="1096"/>
      <point x="779" y="1134"/>
      <point x="761" y="1161" type="curve" smooth="yes"/>
      <point x="743" y="1188"/>
      <point x="705" y="1196"/>
      <point x="678" y="1178" type="curve" smooth="yes"/>
      <point x="661" y="1167" type="line"/>
      <point x="378" y="978" type="line" smooth="yes"/>
      <point x="351" y="960"/>
      <point x="343" y="922"/>
    </contour>
    <contour>
      <point x="389" y="-58" type="curve" smooth="yes"/>
      <point x="716" y="42" type="line" smooth="yes"/>
      <point x="739" y="49"/>
      <point x="758" y="74"/>
      <point x="758" y="98" type="curve" smooth="yes"/>
      <point x="769" y="449" type="line"/>
      <point x="769" y="799" type="line" smooth="yes"/>
      <point x="769" y="831"/>
      <point x="741" y="859"/>
      <point x="709" y="859" type="curve" smooth="yes"/>
      <point x="677" y="859"/>
      <point x="649" y="831"/>
      <point x="649" y="799" type="curve" smooth="yes"/>
      <point x="649" y="449" type="line"/>
      <point x="640" y="144" type="line"/>
      <point x="386" y="66" type="line"/>
      <point x="170" y="256" type="line"/>
      <point x="170" y="799" type="line" smooth="yes"/>
      <point x="170" y="831"/>
      <point x="142" y="859"/>
      <point x="110" y="859" type="curve" smooth="yes"/>
      <point x="78" y="859"/>
      <point x="50" y="831"/>
      <point x="50" y="799" type="curve" smooth="yes"/>
      <point x="50" y="229" type="line" smooth="yes"/>
      <point x="50" y="214"/>
      <point x="59" y="194"/>
      <point x="70" y="184" type="curve" smooth="yes"/>
      <point x="332" y="-46" type="line" smooth="yes"/>
      <point x="346" y="-58"/>
      <point x="372" y="-64"/>
    </contour>
  </outline>
</glyph>
<glyph name="ucircumflex" format="1">
  <advance width="821"/>
  <unicode hex="00FB"/>
  <outline>
    <contour>
      <point x="761" y="895" type="curve" smooth="yes"/>
      <point x="779" y="922"/>
      <point x="771" y="960"/>
      <point x="744" y="978" type="curve" smooth="yes"/>
      <point x="725" y="991" type="line"/>
      <point x="425" y="1169" type="line" smooth="yes"/>
      <point x="407" y="1179"/>
      <point x="378" y="1178"/>
      <point x="361" y="1167" type="curve" smooth="yes"/>
      <point x="78" y="978" type="line" smooth="yes"/>
      <point x="51" y="960"/>
      <point x="43" y="922"/>
      <point x="61" y="895" type="curve" smooth="yes"/>
      <point x="79" y="868"/>
      <point x="117" y="860"/>
      <point x="144" y="878" type="curve" smooth="yes"/>
      <point x="396" y="1046" type="line"/>
      <point x="664" y="887" type="line"/>
      <point x="678" y="878" type="line" smooth="yes"/>
      <point x="705" y="860"/>
      <point x="743" y="868"/>
    </contour>
    <contour>
      <point x="389" y="-58" type="curve" smooth="yes"/>
      <point x="716" y="42" type="line" smooth="yes"/>
      <point x="739" y="49"/>
      <point x="758" y="74"/>
      <point x="758" y="98" type="curve" smooth="yes"/>
      <point x="769" y="449" type="line"/>
      <point x="769" y="799" type="line" smooth="yes"/>
      <point x="769" y="831"/>
      <point x="741" y="859"/>
      <point x="709" y="859" type="curve" smooth="yes"/>
      <point x="677" y="859"/>
      <point x="649" y="831"/>
      <point x="649" y="799" type="curve" smooth="yes"/>
      <point x="649" y="449" type="line"/>
      <point x="640" y="144" type="line"/>
      <point x="386" y="66" type="line"/>
      <point x="170" y="256" type="line"/>
      <point x="170" y="799" type="line" smooth="yes"/>
      <point x="170" y="831"/>
      <point x="142" y="859"/>
      <point x="110" y="859" type="curve" smooth="yes"/>
      <point x="78" y="859"/>
      <point x="50" y="831"/>
      <point x="50" y="799" type="curve" smooth="yes"/>
      <point x="50" y="229" type="line" smooth="yes"/>
      <point x="50" y="214"/>
      <point x="59" y="194"/>
      <point x="70" y="184" type="curve" smooth="yes"/>
      <point x="332" y="-46" type="line" smooth="yes"/>
      <point x="346" y="-58"/>
      <point x="372" y="-64"/>
    </contour>
  </outline>
</glyph>
<glyph name="circumflex" format="1">
  <advance width="819"/>
  <unicode hex="02C6"/>
  <outline>
    <contour>
      <point x="760" y="895" type="curve" smooth="yes"/>
      <point x="778" y="922"/>
      <point x="770" y="960"/>
      <point x="743" y="978" type="curve" smooth="yes"/>
      <point x="724" y="991" type="line"/>
      <point x="424" y="1169" type="line" smooth="yes"/>
      <point x="406" y="1179"/>
      <point x="377" y="1178"/>
      <point x="360" y="1167" type="curve" smooth="yes"/>
      <point x="77" y="978" type="line" smooth="yes"/>
      <point x="50" y="960"/>
      <point x="42" y="922"/>
      <point x="60" y="895" type="curve" smooth="yes"/>
      <point x="78" y="868"/>
      <point x="116" y="860"/>
      <point x="143" y="878" type="curve" smooth="yes"/>
      <point x="395" y="1046" type="line"/>
      <point x="663" y="887" type="line"/>
      <point x="677" y="878" type="line" smooth="yes"/>
      <point x="704" y="860"/>
      <point x="742" y="868"/>
    </contour>
  </outline>
</glyph>
<glyph name="tilde" format="1">
  <advance width="820"/>
  <unicode hex="02DC"/>
  <outline>
    <contour>
      <point x="145" y="879" type="curve" smooth="yes"/>
      <point x="409" y="1068" type="line"/>
      <point x="710" y="1068" type="line" smooth="yes"/>
      <point x="742" y="1068"/>
      <point x="770" y="1096"/>
      <point x="770" y="1128" type="curve" smooth="yes"/>
      <point x="770" y="1160"/>
      <point x="742" y="1188"/>
      <point x="710" y="1188" type="curve" smooth="yes"/>
      <point x="390" y="1188" type="line" smooth="yes"/>
      <point x="379" y="1188"/>
      <point x="364" y="1183"/>
      <point x="355" y="1177" type="curve" smooth="yes"/>
      <point x="75" y="977" type="line" smooth="yes"/>
      <point x="49" y="958"/>
      <point x="42" y="919"/>
      <point x="61" y="893" type="curve" smooth="yes"/>
      <point x="80" y="867"/>
      <point x="119" y="860"/>
    </contour>
  </outline>
</glyph>
<glyph name="quotedblleft" format="1">
  <advance width="426"/>
  <unicode hex="201C"/>
  <outline>
    <contour>
      <point x="270" y="577" type="curve" smooth="yes"/>
      <point x="370" y="777" type="line" smooth="yes"/>
      <point x="384" y="806"/>
      <point x="372" y="843"/>
      <point x="343" y="858" type="curve" smooth="yes"/>
      <point x="314" y="872"/>
      <point x="278" y="860"/>
      <point x="263" y="832" type="curve"/>
      <point x="257" y="843"/>
      <point x="248" y="852"/>
      <point x="237" y="858" type="curve" smooth="yes"/>
      <point x="208" y="872"/>
      <point x="171" y="860"/>
      <point x="156" y="831" type="curve" smooth="yes"/>
      <point x="56" y="631" type="line" smooth="yes"/>
      <point x="42" y="602"/>
      <point x="54" y="565"/>
      <point x="83" y="550" type="curve" smooth="yes"/>
      <point x="112" y="536"/>
      <point x="148" y="548"/>
      <point x="163" y="576" type="curve"/>
      <point x="169" y="565"/>
      <point x="178" y="556"/>
      <point x="189" y="550" type="curve" smooth="yes"/>
      <point x="218" y="536"/>
      <point x="255" y="548"/>
    </contour>
  </outline>
</glyph>
<glyph name="bullet" format="1">
  <advance width="419"/>
  <unicode hex="2022"/>
  <outline>
    <contour>
      <point x="351" y="161" type="curve" smooth="yes"/>
      <point x="374" y="183"/>
      <point x="374" y="223"/>
      <point x="351" y="245" type="curve" smooth="yes"/>
      <point x="294" y="303" type="line"/>
      <point x="351" y="361" type="line" smooth="yes"/>
      <point x="374" y="383"/>
      <point x="374" y="423"/>
      <point x="351" y="445" type="curve" smooth="yes"/>
      <point x="329" y="468"/>
      <point x="289" y="468"/>
      <point x="267" y="445" type="curve" smooth="yes"/>
      <point x="209" y="388" type="line"/>
      <point x="151" y="445" type="line" smooth="yes"/>
      <point x="129" y="468"/>
      <point x="89" y="468"/>
      <point x="67" y="445" type="curve" smooth="yes"/>
      <point x="44" y="423"/>
      <point x="44" y="383"/>
      <point x="67" y="361" type="curve" smooth="yes"/>
      <point x="124" y="303" type="line"/>
      <point x="67" y="245" type="line" smooth="yes"/>
      <point x="44" y="223"/>
      <point x="44" y="183"/>
      <point x="67" y="161" type="curve" smooth="yes"/>
      <point x="89" y="138"/>
      <point x="129" y="138"/>
      <point x="151" y="161" type="curve" smooth="yes"/>
      <point x="209" y="218" type="line"/>
      <point x="267" y="161" type="line" smooth="yes"/>
      <point x="289" y="138"/>
      <point x="329" y="138"/>
    </contour>
  </outline>
</glyph>
